<svg width="12" height="7" viewBox="0 0 12 7" fill="none" xmlns="http://www.w3.org/2000/svg">
<path d="M5.4694 6.5306L0.469402 1.5306C0.328506 1.3897 0.249352 1.19861 0.249352 0.999348C0.249352 0.80009 0.328506 0.608994 0.469402 0.468098C0.610298 0.327201 0.801394 0.248047 1.00065 0.248047C1.19991 0.248047 1.39101 0.327201 1.5319 0.468098L6.00003 4.93747L10.4694 0.469348C10.5392 0.399583 10.622 0.344243 10.7131 0.306486C10.8043 0.26873 10.902 0.249297 11.0007 0.249297C11.0993 0.249297 11.197 0.26873 11.2882 0.306486C11.3793 0.344243 11.4621 0.399583 11.5319 0.469348C11.6017 0.539113 11.657 0.621936 11.6948 0.713088C11.7325 0.80424 11.752 0.901936 11.752 1.0006C11.752 1.09926 11.7325 1.19696 11.6948 1.28811C11.657 1.37926 11.6017 1.46208 11.5319 1.53185L6.5319 6.53185C6.46214 6.60169 6.37928 6.65707 6.28807 6.69481C6.19687 6.73256 6.0991 6.75193 6.00039 6.75181C5.90168 6.7517 5.80397 6.7321 5.71285 6.69414C5.62173 6.65617 5.539 6.6006 5.4694 6.5306Z" fill="black"/>
</svg>
