<svg width="1098" height="558" viewBox="0 0 1098 558" fill="none" xmlns="http://www.w3.org/2000/svg">
<path d="M127.7 14.164H133.832V16.628H127.7V14.164ZM129.968 20.156H142.484V22.928H129.968V20.156ZM127.056 25.364H145.732V28.22H127.056V25.364ZM132.88 14.164H133.356L133.86 14.052L135.764 14.948C134.224 19.4 130.976 22.872 127.392 24.804C126.972 24.076 126.16 22.928 125.544 22.368C128.764 20.94 131.788 17.832 132.88 14.64V14.164ZM142.232 13.688L144.36 15.228C143.212 16.236 141.784 17.132 140.692 17.748L138.816 16.264C139.852 15.648 141.364 14.5 142.232 13.688ZM144.892 16.628L147.076 18.28C145.816 19.316 144.164 20.268 142.932 20.912L141.028 19.344C142.232 18.672 143.912 17.496 144.892 16.628ZM139.236 13.352C140.692 17.16 143.66 20.492 147.552 22.06C146.852 22.62 145.928 23.824 145.452 24.608C141.28 22.648 138.284 18.812 136.52 14.108L139.236 13.352ZM131.62 21.78H134.7V26.148C134.7 29.564 133.804 32.868 127.812 34.66C127.476 33.96 126.524 32.756 125.908 32.196C130.948 30.796 131.62 28.444 131.62 26.064V21.78ZM137.808 21.724H140.972V30.684C140.972 31.58 141.084 31.692 141.672 31.692C141.924 31.692 142.988 31.692 143.296 31.692C143.828 31.692 143.968 31.272 144.052 29.116C144.696 29.592 145.956 30.068 146.796 30.264C146.488 33.512 145.676 34.436 143.632 34.436C143.072 34.436 141.644 34.436 141.112 34.436C138.424 34.436 137.808 33.568 137.808 30.712V21.724ZM126.804 18.672L128.54 16.852C129.66 17.44 131.116 18.392 131.816 19.064L129.996 21.108C129.324 20.408 127.924 19.344 126.804 18.672ZM133.132 8.228H136.632V11.84H133.132V8.228ZM124.424 10.272H146.544V13.072H124.424V10.272ZM122.856 10.272H125.964V19.848C125.964 24.216 125.544 30.544 123.052 34.464C122.492 33.876 121.176 32.84 120.476 32.476C122.66 28.92 122.856 23.74 122.856 19.82V10.272ZM149.512 26.12H174.516V28.752H149.512V26.12ZM149.512 18.756H174.516V21.22H149.512V18.756ZM149.624 9.992H174.628V12.596H149.624V9.992ZM160.236 24.496H163.652V34.492H160.236V24.496ZM160.292 17.076H163.512V23.572H160.292V17.076ZM160.32 8.228H163.792V11.616H160.32V8.228ZM159.48 27.24L161.748 28.276C159.2 30.992 154.804 33.316 150.856 34.436C150.408 33.652 149.484 32.448 148.812 31.804C152.788 31.02 157.184 29.256 159.48 27.24ZM164.408 27.268C166.76 29.2 171.296 30.908 175.272 31.692C174.572 32.308 173.62 33.568 173.144 34.352C169.28 33.26 164.772 30.964 162.14 28.388L164.408 27.268ZM153.488 17.272H156.568V22.536H167.292V17.272H170.54V24.972H153.488V17.272ZM156.876 11.056L160.264 12.036C159.228 13.548 158.136 15.032 157.24 16.012L154.524 15.088C155.336 13.996 156.344 12.288 156.876 11.056ZM164.716 13.212L166.844 11.588C169.196 12.708 172.08 14.472 173.676 15.648L171.52 17.496C169.952 16.208 167.068 14.332 164.716 13.212ZM150.66 14.276C155.504 14.248 163.26 14.136 170.54 13.968L170.428 16.264C163.4 16.572 155.896 16.824 150.8 16.992L150.66 14.276ZM190.448 8.228L193.472 8.816C192.464 13.464 190.616 17.916 188.348 20.716C187.816 20.212 186.5 19.26 185.8 18.84C188.04 16.376 189.608 12.372 190.448 8.228ZM199.856 12.596H203.02C203.02 12.596 202.992 13.688 202.964 14.108C202.432 26.68 201.928 31.272 200.864 32.672C200.22 33.624 199.604 33.96 198.68 34.128C197.896 34.296 196.72 34.296 195.488 34.24C195.404 33.288 195.068 31.86 194.564 30.936C195.6 31.048 196.552 31.076 197.084 31.076C197.504 31.076 197.756 30.936 198.092 30.544C198.876 29.564 199.408 25.224 199.856 13.324V12.596ZM191.288 12.596H201.284V15.704H189.748L191.288 12.596ZM193.248 13.604L195.684 14.808C194.564 19.624 192.1 25.168 189.048 28.024C188.404 27.38 187.34 26.596 186.472 26.12C189.72 23.572 192.184 18.308 193.248 13.604ZM197.14 13.912L199.744 15.116C198.4 22.396 195.432 30.012 190.812 33.876C190.168 33.204 188.992 32.364 188.068 31.916C192.968 28.416 195.852 21.108 197.14 13.912ZM176.728 23.488C179.472 22.872 183.56 21.724 187.424 20.632L187.872 23.6C184.344 24.692 180.508 25.84 177.54 26.708L176.728 23.488ZM181.768 8.228H184.848V34.52H181.768V8.228ZM178.072 9.824L180.872 10.3C180.508 13.996 179.836 17.916 178.828 20.408C178.324 20.016 177.12 19.232 176.448 18.896C177.344 16.656 177.82 13.156 178.072 9.824ZM178.828 13.632H187.172V16.852H178.212L178.828 13.632ZM210.412 17.72H225.644V20.884H210.412V17.72ZM207.388 9.292H215.312V12.204H207.388V9.292ZM206.772 24.076H229.088V27.156H206.772V24.076ZM214.136 9.292H214.724L215.312 9.18L217.552 10.216C215.648 15.928 211.448 19.932 206.66 22.2C206.212 21.444 205.288 20.296 204.616 19.68C208.788 17.944 212.68 14.136 214.136 9.88V9.292ZM212.792 19.316H216.124V24.16C216.124 28.136 215.116 32.308 208.2 34.632C207.78 33.876 206.744 32.56 206.044 31.972C212.008 30.096 212.792 26.988 212.792 24.104V19.316ZM221.052 8.256C222.844 13.072 226.512 17.244 231.44 19.204C230.656 19.876 229.62 21.22 229.088 22.116C223.88 19.652 220.24 14.948 218.056 9.124L221.052 8.256ZM206.52 14.388L208.648 12.624C209.712 13.38 211.168 14.472 211.896 15.228L209.684 17.16C209.012 16.432 207.612 15.228 206.52 14.388ZM224.972 8.676L227.492 10.44C226.036 11.784 224.328 13.184 223.012 14.052L220.996 12.512C222.256 11.532 223.992 9.88 224.972 8.676ZM228.304 11.868L230.768 13.604C229.256 14.976 227.408 16.432 225.98 17.384L223.964 15.844C225.336 14.836 227.212 13.128 228.304 11.868ZM219.596 19.456H223.096V30.18C223.096 31.216 223.208 31.356 223.992 31.356C224.328 31.356 225.728 31.356 226.12 31.356C226.876 31.356 227.016 30.824 227.128 28.192C227.828 28.724 229.2 29.284 230.124 29.48C229.816 33.204 228.92 34.352 226.456 34.352C225.84 34.352 223.992 34.352 223.376 34.352C220.324 34.352 219.596 33.344 219.596 30.18V19.456ZM237.88 25.112H253.784V27.1H237.88V25.112ZM237.908 21.612H255.716V30.6H237.908V28.332H252.384V23.852H237.908V21.612ZM244.096 22.844H247.316V30.684C247.316 31.72 247.624 31.888 249.332 31.888C250.116 31.888 253.644 31.888 254.652 31.888C256.052 31.888 256.332 31.44 256.5 29.06C257.2 29.536 258.46 29.956 259.328 30.124C258.936 33.54 257.984 34.436 254.932 34.436C254.036 34.436 249.864 34.436 249.024 34.436C245.16 34.436 244.096 33.624 244.096 30.684V22.844ZM236.228 21.612H239.448V31.832H236.228V21.612ZM235.556 9.236H256.332V11.7H235.556V9.236ZM237.712 15.928H243.256V17.748H237.712V15.928ZM237.18 18.728H243.256V20.548H237.18V18.728ZM248.604 18.728H254.736V20.548H248.604V18.728ZM248.604 15.928H254.092V17.748H248.604V15.928ZM244.264 10.216H247.54V20.856H244.264V10.216ZM233.652 12.736H258.376V18.476H255.268V14.976H236.62V18.476H233.652V12.736ZM283.324 15.676C282.456 16.18 281.56 16.684 280.524 17.188C278.788 18.056 275.288 19.708 272.712 21.36C270.388 22.872 268.82 24.496 268.82 26.428C268.82 28.444 270.78 29.536 274.672 29.536C277.528 29.536 281.308 29.088 283.8 28.5L283.772 32.532C281.364 32.924 278.424 33.232 274.784 33.232C269.184 33.232 264.956 31.664 264.956 26.848C264.956 23.292 267.56 20.8 270.892 18.616C273.552 16.852 277.08 15.116 278.788 14.136C279.852 13.52 280.636 13.044 281.364 12.456L283.324 15.676ZM269.24 9.684C270.584 13.408 272.348 16.768 273.664 19.12L270.472 20.968C268.932 18.42 267.252 14.752 265.712 11.14L269.24 9.684ZM298.388 9.796C298.22 10.972 298.08 12.428 298.024 13.548C297.884 16.572 297.688 22.816 297.688 26.288C297.688 29.116 299.368 30.04 301.552 30.04C306.172 30.04 309.084 27.38 311.128 24.328L313.676 27.436C311.856 30.124 307.88 33.848 301.496 33.848C296.904 33.848 293.964 31.832 293.964 27.044C293.964 23.292 294.216 15.956 294.216 13.548C294.216 12.204 294.104 10.86 293.88 9.768L298.388 9.796ZM317.14 12.764C318.232 12.736 319.352 12.68 319.884 12.624C322.236 12.4 326.828 12.008 331.98 11.56C334.864 11.308 337.916 11.14 339.904 11.056L339.932 14.668C338.42 14.668 336.012 14.696 334.5 15.032C331.14 15.928 328.592 19.568 328.592 22.872C328.592 27.492 332.904 29.144 337.636 29.396L336.348 33.232C330.468 32.868 324.924 29.704 324.924 23.628C324.924 19.596 327.192 16.432 329.096 15.004C326.464 15.284 320.752 15.872 317.504 16.6L317.14 12.764ZM343.992 25H370.312V28.08H343.992V25ZM345.14 9.74H369.192V12.82H345.14V9.74ZM349.536 19.876H364.992V22.732H349.536V19.876ZM363.76 14.668H367.092V30.88C367.092 32.588 366.728 33.484 365.552 34.016C364.404 34.52 362.752 34.576 360.372 34.576C360.204 33.68 359.672 32.224 359.196 31.412C360.736 31.496 362.584 31.468 363.06 31.44C363.564 31.44 363.76 31.3 363.76 30.852V14.668ZM347.184 14.668H365.076V17.692H350.516V34.548H347.184V14.668ZM355.332 10.664H358.72V26.064H355.332V10.664ZM372.356 16.544H385.796V19.652H372.356V16.544ZM387.14 11.616H390.416V27.352H387.14V11.616ZM377.704 11H381.008V34.492H377.704V11ZM393.776 8.76H397.108V30.404C397.108 32.392 396.716 33.316 395.568 33.876C394.392 34.408 392.544 34.52 389.968 34.52C389.8 33.54 389.268 32 388.792 31.048C390.64 31.104 392.432 31.104 393.02 31.104C393.552 31.104 393.776 30.936 393.776 30.404V8.76ZM383.332 8.34L385.74 10.916C382.184 12.316 377.256 13.268 373.028 13.856C372.888 13.1 372.412 11.924 372.02 11.224C376.108 10.608 380.616 9.572 383.332 8.34ZM377.676 18.028L379.944 19.008C378.544 23.208 376.08 28.22 373.448 31.02C373.112 30.012 372.272 28.612 371.712 27.716C374.12 25.392 376.556 21.304 377.676 18.028ZM380.504 20.856C381.596 21.556 385.068 24.468 385.88 25.196L383.976 28.08C382.744 26.568 380.14 23.852 378.768 22.592L380.504 20.856ZM405.032 10.104H422.224V13.296H405.032V10.104ZM405.032 16.544H422.28V19.68H405.032V16.544ZM404.976 23.152H422.392V26.316H404.976V23.152ZM403.1 10.104H406.432V20.184C406.432 24.636 405.872 30.936 402.428 34.688C401.896 34.044 400.524 32.924 399.796 32.504C402.848 29.116 403.1 24.104 403.1 20.156V10.104ZM421.048 10.104H424.38V30.572C424.38 32.364 423.988 33.26 422.868 33.792C421.692 34.324 420.012 34.38 417.464 34.352C417.324 33.456 416.82 32 416.372 31.132C417.968 31.244 419.816 31.216 420.32 31.216C420.852 31.188 421.048 31.02 421.048 30.544V10.104ZM411.724 11.364H415.14V34.184H411.724V11.364ZM447.088 11.028H450.616V30.292C450.616 32.308 450.14 33.316 448.796 33.848C447.396 34.436 445.352 34.492 442.468 34.492C442.272 33.484 441.6 31.832 441.068 30.908C443.084 31.048 445.52 31.02 446.192 31.02C446.864 30.992 447.088 30.796 447.088 30.208V11.028ZM431.072 16.628H434.348V29.676H431.072V16.628ZM432.472 16.628H443.028V27.52H432.472V24.328H439.696V19.82H432.472V16.628ZM428.496 10.104H453.864V13.492H428.496V10.104ZM460.22 8.088L463.72 8.844C462.712 11.42 461.452 14.164 460.388 15.956L457.476 15.2C458.484 13.296 459.632 10.328 460.22 8.088ZM455.992 13.828C459.016 13.744 463.552 13.548 467.892 13.352L467.864 16.264C463.748 16.572 459.436 16.824 456.244 17.02L455.992 13.828ZM457.644 18.336H466.548V21.108H460.752V34.492H457.644V18.336ZM464.952 18.336H468.284V31.132C468.284 32.56 468.004 33.4 467.052 33.904C466.072 34.408 464.812 34.464 463.104 34.464C462.936 33.568 462.46 32.28 462.04 31.468C463.02 31.524 464.14 31.524 464.504 31.496C464.84 31.496 464.952 31.412 464.952 31.048V18.336ZM459.072 22.564H466.828V25.056H459.072V22.564ZM459.072 26.68H466.828V29.172H459.072V26.68ZM470.468 8.34H473.828V16.74C473.828 17.72 473.996 17.86 475.06 17.86C475.508 17.86 477.524 17.86 478.112 17.86C479.036 17.86 479.204 17.44 479.316 14.976C480.016 15.508 481.388 16.012 482.312 16.208C481.948 19.848 481.052 20.856 478.448 20.856C477.748 20.856 475.228 20.856 474.584 20.856C471.28 20.856 470.468 19.904 470.468 16.796V8.34ZM478.868 9.992L480.996 12.428C478.504 13.632 475.256 14.696 472.484 15.452C472.344 14.78 471.896 13.772 471.532 13.128C474.136 12.316 477.02 11.056 478.868 9.992ZM470.468 21.416H473.8V30.236C473.8 31.272 473.996 31.384 475.088 31.384C475.564 31.384 477.664 31.384 478.28 31.384C479.26 31.384 479.428 30.88 479.568 28.024C480.268 28.528 481.612 29.06 482.536 29.256C482.172 33.204 481.276 34.324 478.588 34.324C477.888 34.324 475.284 34.324 474.612 34.324C471.308 34.324 470.468 33.372 470.468 30.264V21.416ZM479.092 22.592L481.276 25.056C478.728 26.428 475.34 27.604 472.456 28.416C472.288 27.772 471.812 26.708 471.476 26.064C474.192 25.196 477.188 23.824 479.092 22.592ZM464.028 11.168L466.884 10.104C468.256 12.12 469.712 14.78 470.244 16.628L467.192 17.86C466.716 16.068 465.372 13.268 464.028 11.168ZM485.448 13.66C486.652 13.8 488.164 13.856 489.172 13.856C492.644 13.856 496.424 13.268 499.14 12.4L499.224 15.648C496.816 16.32 492.784 17.048 489.2 17.02C488.08 17.02 486.904 16.992 485.7 16.936L485.448 13.66ZM496.34 9.46C495.976 10.944 495.304 13.688 494.548 16.068C493.26 20.1 490.74 25.308 488.36 28.612L484.972 26.876C487.492 23.796 490.012 18.896 491.104 15.872C491.776 13.856 492.392 11.252 492.476 9.096L496.34 9.46ZM502.92 18.196C502.836 19.372 502.864 20.548 502.892 21.78C502.948 23.432 503.2 27.604 503.2 29.172C503.2 31.776 501.8 33.82 497.796 33.82C494.324 33.82 491.58 32.252 491.58 29.172C491.58 26.456 493.876 24.328 497.768 24.328C502.668 24.328 506.532 26.792 508.856 28.892L507.008 31.916C504.992 30.04 501.8 27.156 497.572 27.156C495.948 27.156 494.884 27.856 494.884 28.836C494.884 29.872 495.78 30.6 497.32 30.6C499.224 30.6 499.84 29.536 499.84 27.968C499.84 26.288 499.532 21.136 499.392 18.196H502.92ZM507.736 19.68C506.112 18.364 502.92 16.544 500.988 15.676L502.808 12.932C504.824 13.8 508.268 15.676 509.724 16.712L507.736 19.68ZM129.184 51.196H146.656V56.488H143.52V53.94H132.18V56.488H129.184V51.196ZM136.016 48.228H139.432V52.82H136.016V48.228ZM131.62 65.336H144.22V74.52H141.056V68.052H134.644V74.548H131.62V65.336ZM133.02 70.796H142.372V73.512H133.02V70.796ZM133.608 54.78L136.66 55.76C135.26 58.084 132.992 60.324 130.864 61.724C130.36 61.108 129.184 59.932 128.512 59.4C130.528 58.308 132.516 56.6 133.608 54.78ZM138.984 56.376L141.308 54.752C143.128 56.068 145.508 58.028 146.628 59.428L144.136 61.276C143.128 59.904 140.86 57.832 138.984 56.376ZM137.724 61.612C136.044 64.02 133.02 66.876 129.8 68.64C129.436 67.8 128.708 66.596 128.092 65.868C131.34 64.272 134.532 61.192 136.072 58.672H139.152C141.28 61.444 144.388 64.076 147.412 65.364C146.768 66.12 146.04 67.352 145.536 68.304C142.708 66.764 139.488 64.02 137.724 61.612ZM122.212 50.832L124.06 48.312C125.74 48.956 127.924 50.104 129.016 51L127.056 53.8C126.048 52.82 123.892 51.56 122.212 50.832ZM120.756 58.42L122.604 55.872C124.256 56.46 126.44 57.552 127.532 58.42L125.572 61.22C124.564 60.324 122.464 59.12 120.756 58.42ZM121.288 72.252C122.492 70.068 124.144 66.512 125.404 63.208L128.176 65.084C127.056 68.136 125.684 71.384 124.396 74.128L121.288 72.252ZM164.632 48.2H168.02V52.008H164.632V48.2ZM158.36 50.888H174.32V53.716H158.36V50.888ZM157.492 57.272H175.02V60.128H157.492V57.272ZM160.908 53.8L163.792 53.24C164.296 54.528 164.744 56.18 164.828 57.244L161.776 57.916C161.748 56.852 161.384 55.116 160.908 53.8ZM168.804 53.268L172.052 53.604C171.492 55.2 170.932 56.74 170.428 57.832L167.6 57.44C168.048 56.264 168.552 54.5 168.804 53.268ZM157.716 62.116H174.964V64.944H157.716V62.116ZM163.512 59.428L166.872 60.072C165.36 63.404 163.4 67.352 161.916 69.984L159.032 69.06C160.432 66.568 162.308 62.536 163.512 59.428ZM161.02 69.088L162.98 66.876C166.872 68.024 172.024 70.18 174.684 72.028L172.528 74.52C170.092 72.7 164.996 70.376 161.02 69.088ZM168.804 64.188L172.024 64.524C170.568 71.132 166.844 73.428 158.08 74.576C157.828 73.652 157.324 72.504 156.848 71.86C164.52 71.244 167.628 69.396 168.804 64.188ZM148.56 62.536C150.912 62.06 154.412 61.192 157.744 60.352L158.136 63.32C155.084 64.216 151.836 65.112 149.26 65.812L148.56 62.536ZM149.12 53.548H157.772V56.628H149.12V53.548ZM152.424 48.256H155.644V70.74C155.644 72.392 155.364 73.288 154.44 73.82C153.516 74.38 152.172 74.492 150.268 74.492C150.156 73.596 149.736 72.14 149.316 71.216C150.408 71.272 151.556 71.272 151.92 71.272C152.284 71.272 152.424 71.132 152.424 70.74V48.256ZM182.804 70.376C187.34 68.5 190.364 65.7 192.38 62.76C194.48 59.764 195.264 56.628 195.712 54.304C195.964 53.044 196.076 51.616 196.048 50.944L200.584 51.56C200.276 52.624 199.94 54.024 199.772 54.836C199.044 58.112 197.924 61.528 195.88 64.664C193.696 68.024 190.588 71.104 186.164 73.26L182.804 70.376ZM182.244 51.056C183.616 53.044 186.024 57.328 187.06 59.288L183.392 61.36C181.992 58.364 179.92 54.724 178.632 52.904L182.244 51.056ZM226.456 50.272C226.4 51.056 226.372 51.952 226.372 53.1C226.372 54.528 226.372 57.244 226.372 58.616C226.372 64.664 225.196 67.24 223.096 69.536C221.248 71.58 218.364 72.924 216.32 73.596L213.38 70.488C216.18 69.844 218.42 68.78 220.128 66.96C222.032 64.86 222.424 62.76 222.424 58.392C222.424 56.992 222.424 54.304 222.424 53.1C222.424 51.952 222.34 51.056 222.228 50.272H226.456ZM213.492 50.524C213.436 51.168 213.38 51.784 213.38 52.652C213.38 53.884 213.38 60.548 213.38 62.116C213.38 62.816 213.436 63.908 213.492 64.552H209.404C209.46 64.048 209.544 62.956 209.544 62.088C209.544 60.492 209.544 53.884 209.544 52.652C209.544 52.148 209.516 51.168 209.432 50.524H213.492ZM246.112 55.396C246.644 56.572 248.016 60.24 248.408 61.528L245.076 62.676C244.712 61.332 243.48 57.944 242.808 56.488L246.112 55.396ZM256.444 57.412C256.136 58.336 255.968 58.924 255.8 59.484C255.072 62.312 253.868 65.224 251.964 67.66C249.36 71.048 245.888 73.372 242.612 74.632L239.672 71.636C242.724 70.796 246.644 68.668 248.94 65.756C250.844 63.404 252.216 59.68 252.524 56.152L256.444 57.412ZM239.616 56.852C240.316 58.28 241.688 61.696 242.22 63.264L238.804 64.524C238.356 63.04 236.928 59.288 236.256 58.084L239.616 56.852ZM279.068 51.168C279.852 52.344 281 54.136 281.616 55.424L279.208 56.488C278.368 54.724 277.752 53.604 276.716 52.176L279.068 51.168ZM282.736 49.656C283.576 50.776 284.752 52.512 285.368 53.772L283.016 54.948C282.12 53.156 281.448 52.12 280.412 50.748L282.736 49.656ZM267.924 69.732C267.924 67.604 267.924 56.012 267.924 53.632C267.924 52.624 267.812 51.252 267.616 50.272H272.012C271.9 51.252 271.76 52.484 271.76 53.632C271.76 56.74 271.76 67.66 271.76 69.732C271.76 70.544 271.9 72.504 272.012 73.624H267.644C267.812 72.532 267.924 70.852 267.924 69.732ZM270.92 57.496C274.672 58.532 280.692 60.744 283.464 62.116L281.868 65.98C278.704 64.328 273.972 62.536 270.92 61.528V57.496ZM313.256 53.24C313.088 53.66 312.808 54.752 312.752 55.144C312.248 58.056 311.604 62.144 309.42 65.532C307.096 69.172 303.288 71.972 298.78 73.54L295.672 70.376C299.424 69.424 303.764 67.128 305.948 63.628C307.376 61.36 308.216 58.224 308.496 55.228C306.732 55.228 297.072 55.228 295.084 55.228C295.084 56.068 295.084 58.756 295.084 59.876C295.084 60.296 295.084 61.304 295.168 62.172H291.052C291.136 61.332 291.192 60.632 291.192 59.876C291.192 58.756 291.192 55.284 291.192 53.968C291.192 53.212 291.164 52.372 291.08 51.644C291.948 51.7 293.208 51.728 294.496 51.728C295.616 51.728 305.892 51.728 307.88 51.728C308.832 51.728 309.784 51.672 310.54 51.532L313.256 53.24ZM317.736 61.136C322.748 59.848 326.836 58.028 329.972 56.096C332.828 54.332 336.02 51.532 337.84 49.32L340.864 52.176C338.316 54.752 334.9 57.384 331.596 59.372C328.432 61.248 323.896 63.348 319.472 64.664L317.736 61.136ZM329.384 57.916L333.36 56.964V69.592C333.36 70.824 333.416 72.56 333.612 73.26H329.16C329.272 72.588 329.384 70.824 329.384 69.592V57.916ZM353.148 49.152C353.26 49.88 353.428 50.748 353.708 51.644C354.996 56.18 358.02 67.352 358.888 70.208C359.056 70.824 359.504 72.14 359.756 72.84L355.612 73.82C355.444 73.064 355.248 71.944 354.968 70.992C354.212 68.276 350.964 55.872 349.984 52.54C349.62 51.308 349.368 50.636 349.06 50.104L353.148 49.152ZM369.444 54.248C368.156 57.104 364.74 62.004 362.416 64.552L358.804 62.844C360.904 61.108 363.144 58.168 364.04 56.628C362.248 56.908 348.192 59.792 345.448 60.436L344.496 56.656C345.56 56.572 346.54 56.46 347.632 56.292C349.424 55.984 362.864 53.464 365.216 52.932C365.804 52.82 366.448 52.596 366.896 52.4L369.444 54.248ZM373.7 59.036C374.736 59.12 376.752 59.232 378.208 59.232C381.512 59.232 390.752 59.232 393.244 59.232C394.56 59.232 395.792 59.092 396.548 59.036V63.46C395.876 63.432 394.448 63.292 393.272 63.292C390.724 63.292 381.512 63.292 378.208 63.292C376.64 63.292 374.764 63.376 373.7 63.46V59.036ZM415.7 52.82C415.308 55.676 414.748 58.952 413.768 62.256C412.088 67.912 409.68 71.384 406.628 71.384C403.492 71.384 400.916 67.94 400.916 63.208C400.916 56.768 406.544 51.224 413.796 51.224C420.712 51.224 425.108 56.04 425.108 62.172C425.108 68.052 421.496 72.224 414.44 73.316L412.312 70.012C413.404 69.872 414.188 69.732 414.944 69.564C418.5 68.696 421.3 66.148 421.3 62.032C421.3 57.636 418.556 54.5 413.712 54.5C407.776 54.5 404.528 59.344 404.528 62.872C404.528 65.7 405.648 67.072 406.712 67.072C407.916 67.072 408.98 65.28 410.156 61.5C410.968 58.868 411.584 55.648 411.864 52.708L415.7 52.82ZM438.8 50.384H453.64V52.764H438.8V50.384ZM438.324 57.132H454.172V59.512H438.324V57.132ZM438.212 67.632H454.228V70.012H438.212V67.632ZM439.444 53.772H453.22V56.04H439.444V53.772ZM441.852 48.228H444.764V58.196H441.852V48.228ZM447.648 48.228H450.616V58.196H447.648V48.228ZM444.736 58.224H447.648V68.276H444.736V58.224ZM449.86 60.548H452.912V71.468C452.912 72.868 452.632 73.624 451.708 74.072C450.756 74.52 449.44 74.52 447.62 74.52C447.48 73.736 447.116 72.588 446.752 71.832C447.844 71.888 449.048 71.888 449.384 71.888C449.748 71.86 449.86 71.776 449.86 71.44V60.548ZM439.696 60.548H451.148V62.928H442.664V74.576H439.696V60.548ZM441.18 64.188H451.148V66.26H441.18V64.188ZM430.596 67.604L433.536 68.304C432.808 70.656 431.52 73.064 430.204 74.576C429.616 74.128 428.384 73.316 427.684 72.924C428.972 71.608 430.064 69.592 430.596 67.604ZM433.9 68.612L436.364 67.548C437.316 68.976 438.352 70.88 438.8 72.112L436.224 73.344C435.804 72.084 434.796 70.096 433.9 68.612ZM432.108 57.02V59.624H434.88V57.02H432.108ZM432.108 62.088V64.748H434.88V62.088H432.108ZM432.108 51.952V54.528H434.88V51.952H432.108ZM429.252 49.264H437.82V67.408H429.252V49.264ZM461.564 49.796H469.488V53.212H461.564V49.796ZM467.836 49.796H471.308C471.308 55.116 472.064 65.42 482.452 71.496C481.668 72.112 480.324 73.596 479.736 74.436C469.068 68.024 467.836 55.508 467.836 49.796ZM466.632 55.928L470.496 56.628C468.536 64.944 464.812 70.964 458.96 74.492C458.344 73.764 456.776 72.364 455.908 71.748C461.76 68.78 465.12 63.348 466.632 55.928Z" fill="#333333"/>
<path d="M9.184 340.196H26.656V345.488H23.52V342.94H12.18V345.488H9.184V340.196ZM16.016 337.228H19.432V341.82H16.016V337.228ZM11.62 354.336H24.22V363.52H21.056V357.052H14.644V363.548H11.62V354.336ZM13.02 359.796H22.372V362.512H13.02V359.796ZM13.608 343.78L16.66 344.76C15.26 347.084 12.992 349.324 10.864 350.724C10.36 350.108 9.184 348.932 8.512 348.4C10.528 347.308 12.516 345.6 13.608 343.78ZM18.984 345.376L21.308 343.752C23.128 345.068 25.508 347.028 26.628 348.428L24.136 350.276C23.128 348.904 20.86 346.832 18.984 345.376ZM17.724 350.612C16.044 353.02 13.02 355.876 9.8 357.64C9.436 356.8 8.708 355.596 8.092 354.868C11.34 353.272 14.532 350.192 16.072 347.672H19.152C21.28 350.444 24.388 353.076 27.412 354.364C26.768 355.12 26.04 356.352 25.536 357.304C22.708 355.764 19.488 353.02 17.724 350.612ZM2.212 339.832L4.06 337.312C5.74 337.956 7.924 339.104 9.016 340L7.056 342.8C6.048 341.82 3.892 340.56 2.212 339.832ZM0.756 347.42L2.604 344.872C4.256 345.46 6.44 346.552 7.532 347.42L5.572 350.22C4.564 349.324 2.464 348.12 0.756 347.42ZM1.288 361.252C2.492 359.068 4.144 355.512 5.404 352.208L8.176 354.084C7.056 357.136 5.684 360.384 4.396 363.128L1.288 361.252ZM44.632 337.2H48.02V341.008H44.632V337.2ZM38.36 339.888H54.32V342.716H38.36V339.888ZM37.492 346.272H55.02V349.128H37.492V346.272ZM40.908 342.8L43.792 342.24C44.296 343.528 44.744 345.18 44.828 346.244L41.776 346.916C41.748 345.852 41.384 344.116 40.908 342.8ZM48.804 342.268L52.052 342.604C51.492 344.2 50.932 345.74 50.428 346.832L47.6 346.44C48.048 345.264 48.552 343.5 48.804 342.268ZM37.716 351.116H54.964V353.944H37.716V351.116ZM43.512 348.428L46.872 349.072C45.36 352.404 43.4 356.352 41.916 358.984L39.032 358.06C40.432 355.568 42.308 351.536 43.512 348.428ZM41.02 358.088L42.98 355.876C46.872 357.024 52.024 359.18 54.684 361.028L52.528 363.52C50.092 361.7 44.996 359.376 41.02 358.088ZM48.804 353.188L52.024 353.524C50.568 360.132 46.844 362.428 38.08 363.576C37.828 362.652 37.324 361.504 36.848 360.86C44.52 360.244 47.628 358.396 48.804 353.188ZM28.56 351.536C30.912 351.06 34.412 350.192 37.744 349.352L38.136 352.32C35.084 353.216 31.836 354.112 29.26 354.812L28.56 351.536ZM29.12 342.548H37.772V345.628H29.12V342.548ZM32.424 337.256H35.644V359.74C35.644 361.392 35.364 362.288 34.44 362.82C33.516 363.38 32.172 363.492 30.268 363.492C30.156 362.596 29.736 361.14 29.316 360.216C30.408 360.272 31.556 360.272 31.92 360.272C32.284 360.272 32.424 360.132 32.424 359.74V337.256ZM62.804 359.376C67.34 357.5 70.364 354.7 72.38 351.76C74.48 348.764 75.264 345.628 75.712 343.304C75.964 342.044 76.076 340.616 76.048 339.944L80.584 340.56C80.276 341.624 79.94 343.024 79.772 343.836C79.044 347.112 77.924 350.528 75.88 353.664C73.696 357.024 70.588 360.104 66.164 362.26L62.804 359.376ZM62.244 340.056C63.616 342.044 66.024 346.328 67.06 348.288L63.392 350.36C61.992 347.364 59.92 343.724 58.632 341.904L62.244 340.056ZM106.456 339.272C106.4 340.056 106.372 340.952 106.372 342.1C106.372 343.528 106.372 346.244 106.372 347.616C106.372 353.664 105.196 356.24 103.096 358.536C101.248 360.58 98.364 361.924 96.32 362.596L93.38 359.488C96.18 358.844 98.42 357.78 100.128 355.96C102.032 353.86 102.424 351.76 102.424 347.392C102.424 345.992 102.424 343.304 102.424 342.1C102.424 340.952 102.34 340.056 102.228 339.272H106.456ZM93.492 339.524C93.436 340.168 93.38 340.784 93.38 341.652C93.38 342.884 93.38 349.548 93.38 351.116C93.38 351.816 93.436 352.908 93.492 353.552H89.404C89.46 353.048 89.544 351.956 89.544 351.088C89.544 349.492 89.544 342.884 89.544 341.652C89.544 341.148 89.516 340.168 89.432 339.524H93.492ZM126.112 344.396C126.644 345.572 128.016 349.24 128.408 350.528L125.076 351.676C124.712 350.332 123.48 346.944 122.808 345.488L126.112 344.396ZM136.444 346.412C136.136 347.336 135.968 347.924 135.8 348.484C135.072 351.312 133.868 354.224 131.964 356.66C129.36 360.048 125.888 362.372 122.612 363.632L119.672 360.636C122.724 359.796 126.644 357.668 128.94 354.756C130.844 352.404 132.216 348.68 132.524 345.152L136.444 346.412ZM119.616 345.852C120.316 347.28 121.688 350.696 122.22 352.264L118.804 353.524C118.356 352.04 116.928 348.288 116.256 347.084L119.616 345.852ZM159.068 340.168C159.852 341.344 161 343.136 161.616 344.424L159.208 345.488C158.368 343.724 157.752 342.604 156.716 341.176L159.068 340.168ZM162.736 338.656C163.576 339.776 164.752 341.512 165.368 342.772L163.016 343.948C162.12 342.156 161.448 341.12 160.412 339.748L162.736 338.656ZM147.924 358.732C147.924 356.604 147.924 345.012 147.924 342.632C147.924 341.624 147.812 340.252 147.616 339.272H152.012C151.9 340.252 151.76 341.484 151.76 342.632C151.76 345.74 151.76 356.66 151.76 358.732C151.76 359.544 151.9 361.504 152.012 362.624H147.644C147.812 361.532 147.924 359.852 147.924 358.732ZM150.92 346.496C154.672 347.532 160.692 349.744 163.464 351.116L161.868 354.98C158.704 353.328 153.972 351.536 150.92 350.528V346.496ZM193.256 342.24C193.088 342.66 192.808 343.752 192.752 344.144C192.248 347.056 191.604 351.144 189.42 354.532C187.096 358.172 183.288 360.972 178.78 362.54L175.672 359.376C179.424 358.424 183.764 356.128 185.948 352.628C187.376 350.36 188.216 347.224 188.496 344.228C186.732 344.228 177.072 344.228 175.084 344.228C175.084 345.068 175.084 347.756 175.084 348.876C175.084 349.296 175.084 350.304 175.168 351.172H171.052C171.136 350.332 171.192 349.632 171.192 348.876C171.192 347.756 171.192 344.284 171.192 342.968C171.192 342.212 171.164 341.372 171.08 340.644C171.948 340.7 173.208 340.728 174.496 340.728C175.616 340.728 185.892 340.728 187.88 340.728C188.832 340.728 189.784 340.672 190.54 340.532L193.256 342.24ZM197.736 350.136C202.748 348.848 206.836 347.028 209.972 345.096C212.828 343.332 216.02 340.532 217.84 338.32L220.864 341.176C218.316 343.752 214.9 346.384 211.596 348.372C208.432 350.248 203.896 352.348 199.472 353.664L197.736 350.136ZM209.384 346.916L213.36 345.964V358.592C213.36 359.824 213.416 361.56 213.612 362.26H209.16C209.272 361.588 209.384 359.824 209.384 358.592V346.916ZM233.148 338.152C233.26 338.88 233.428 339.748 233.708 340.644C234.996 345.18 238.02 356.352 238.888 359.208C239.056 359.824 239.504 361.14 239.756 361.84L235.612 362.82C235.444 362.064 235.248 360.944 234.968 359.992C234.212 357.276 230.964 344.872 229.984 341.54C229.62 340.308 229.368 339.636 229.06 339.104L233.148 338.152ZM249.444 343.248C248.156 346.104 244.74 351.004 242.416 353.552L238.804 351.844C240.904 350.108 243.144 347.168 244.04 345.628C242.248 345.908 228.192 348.792 225.448 349.436L224.496 345.656C225.56 345.572 226.54 345.46 227.632 345.292C229.424 344.984 242.864 342.464 245.216 341.932C245.804 341.82 246.448 341.596 246.896 341.4L249.444 343.248ZM253.7 348.036C254.736 348.12 256.752 348.232 258.208 348.232C261.512 348.232 270.752 348.232 273.244 348.232C274.56 348.232 275.792 348.092 276.548 348.036V352.46C275.876 352.432 274.448 352.292 273.272 352.292C270.724 352.292 261.512 352.292 258.208 352.292C256.64 352.292 254.764 352.376 253.7 352.46V348.036ZM295.7 341.82C295.308 344.676 294.748 347.952 293.768 351.256C292.088 356.912 289.68 360.384 286.628 360.384C283.492 360.384 280.916 356.94 280.916 352.208C280.916 345.768 286.544 340.224 293.796 340.224C300.712 340.224 305.108 345.04 305.108 351.172C305.108 357.052 301.496 361.224 294.44 362.316L292.312 359.012C293.404 358.872 294.188 358.732 294.944 358.564C298.5 357.696 301.3 355.148 301.3 351.032C301.3 346.636 298.556 343.5 293.712 343.5C287.776 343.5 284.528 348.344 284.528 351.872C284.528 354.7 285.648 356.072 286.712 356.072C287.916 356.072 288.98 354.28 290.156 350.5C290.968 347.868 291.584 344.648 291.864 341.708L295.7 341.82ZM14.168 378.684H26.376V381.708H14.168V378.684ZM13.188 378.684H16.268V389.268C16.268 393.692 15.904 399.824 13.188 403.632C12.628 403.1 11.256 402.204 10.528 401.896C13.02 398.396 13.188 393.272 13.188 389.268V378.684ZM23.1 385.684H23.688L24.248 385.6L26.208 386.048C25.2 395.204 21.952 400.58 16.436 403.464C16.016 402.624 15.176 401.336 14.504 400.72C19.292 398.62 22.288 393.468 23.1 386.216V385.684ZM18.256 387.728C19.6 393.692 22.512 398.648 27.468 400.916C26.74 401.504 25.76 402.764 25.284 403.604C19.992 400.748 17.136 395.344 15.512 388.316L18.256 387.728ZM15.064 385.684H23.912V388.596H15.064V385.684ZM3.556 396.604L6.636 397.332C5.88 399.712 4.536 402.12 3.136 403.632C2.548 403.128 1.26 402.232 0.504 401.84C1.876 400.552 2.996 398.564 3.556 396.604ZM6.972 397.64L9.576 396.52C10.444 397.668 11.368 399.18 11.816 400.216L9.1 401.532C8.708 400.496 7.784 398.844 6.972 397.64ZM5.18 386.048V388.624H8.176V386.048H5.18ZM5.18 391.088V393.72H8.176V391.088H5.18ZM5.18 380.98V383.556H8.176V380.98H5.18ZM2.212 378.32H11.284V396.38H2.212V378.32ZM29.596 379.468H54.376V382.52H29.596V379.468ZM32.284 384.34H51.828V387.28H32.284V384.34ZM29.988 388.68H54.04V394.672H50.652V391.676H33.208V394.672H29.988V388.68ZM40.096 377.256H43.596V385.964H40.096V377.256ZM43.456 392.572H46.844V399.152C46.844 400.048 47.012 400.16 47.992 400.16C48.468 400.16 50.288 400.16 50.82 400.16C51.744 400.16 51.94 399.712 52.024 396.828C52.724 397.36 54.152 397.892 55.048 398.088C54.684 402.148 53.816 403.184 51.156 403.184C50.456 403.184 48.188 403.184 47.544 403.184C44.268 403.184 43.456 402.232 43.456 399.208V392.572ZM36.54 392.544H40.04C39.62 398.2 38.388 401.784 30.66 403.632C30.352 402.736 29.512 401.42 28.812 400.72C35.532 399.404 36.204 396.912 36.54 392.544ZM79.324 384.676C78.456 385.18 77.56 385.684 76.524 386.188C74.788 387.056 71.288 388.708 68.712 390.36C66.388 391.872 64.82 393.496 64.82 395.428C64.82 397.444 66.78 398.536 70.672 398.536C73.528 398.536 77.308 398.088 79.8 397.5L79.772 401.532C77.364 401.924 74.424 402.232 70.784 402.232C65.184 402.232 60.956 400.664 60.956 395.848C60.956 392.292 63.56 389.8 66.892 387.616C69.552 385.852 73.08 384.116 74.788 383.136C75.852 382.52 76.636 382.044 77.364 381.456L79.324 384.676ZM65.24 378.684C66.584 382.408 68.348 385.768 69.664 388.12L66.472 389.968C64.932 387.42 63.252 383.752 61.712 380.14L65.24 378.684ZM91.7 383.164H97.832V385.628H91.7V383.164ZM93.968 389.156H106.484V391.928H93.968V389.156ZM91.056 394.364H109.732V397.22H91.056V394.364ZM96.88 383.164H97.356L97.86 383.052L99.764 383.948C98.224 388.4 94.976 391.872 91.392 393.804C90.972 393.076 90.16 391.928 89.544 391.368C92.764 389.94 95.788 386.832 96.88 383.64V383.164ZM106.232 382.688L108.36 384.228C107.212 385.236 105.784 386.132 104.692 386.748L102.816 385.264C103.852 384.648 105.364 383.5 106.232 382.688ZM108.892 385.628L111.076 387.28C109.816 388.316 108.164 389.268 106.932 389.912L105.028 388.344C106.232 387.672 107.912 386.496 108.892 385.628ZM103.236 382.352C104.692 386.16 107.66 389.492 111.552 391.06C110.852 391.62 109.928 392.824 109.452 393.608C105.28 391.648 102.284 387.812 100.52 383.108L103.236 382.352ZM95.62 390.78H98.7V395.148C98.7 398.564 97.804 401.868 91.812 403.66C91.476 402.96 90.524 401.756 89.908 401.196C94.948 399.796 95.62 397.444 95.62 395.064V390.78ZM101.808 390.724H104.972V399.684C104.972 400.58 105.084 400.692 105.672 400.692C105.924 400.692 106.988 400.692 107.296 400.692C107.828 400.692 107.968 400.272 108.052 398.116C108.696 398.592 109.956 399.068 110.796 399.264C110.488 402.512 109.676 403.436 107.632 403.436C107.072 403.436 105.644 403.436 105.112 403.436C102.424 403.436 101.808 402.568 101.808 399.712V390.724ZM90.804 387.672L92.54 385.852C93.66 386.44 95.116 387.392 95.816 388.064L93.996 390.108C93.324 389.408 91.924 388.344 90.804 387.672ZM97.132 377.228H100.632V380.84H97.132V377.228ZM88.424 379.272H110.544V382.072H88.424V379.272ZM86.856 379.272H89.964V388.848C89.964 393.216 89.544 399.544 87.052 403.464C86.492 402.876 85.176 401.84 84.476 401.476C86.66 397.92 86.856 392.74 86.856 388.82V379.272ZM113.512 395.12H138.516V397.752H113.512V395.12ZM113.512 387.756H138.516V390.22H113.512V387.756ZM113.624 378.992H138.628V381.596H113.624V378.992ZM124.236 393.496H127.652V403.492H124.236V393.496ZM124.292 386.076H127.512V392.572H124.292V386.076ZM124.32 377.228H127.792V380.616H124.32V377.228ZM123.48 396.24L125.748 397.276C123.2 399.992 118.804 402.316 114.856 403.436C114.408 402.652 113.484 401.448 112.812 400.804C116.788 400.02 121.184 398.256 123.48 396.24ZM128.408 396.268C130.76 398.2 135.296 399.908 139.272 400.692C138.572 401.308 137.62 402.568 137.144 403.352C133.28 402.26 128.772 399.964 126.14 397.388L128.408 396.268ZM117.488 386.272H120.568V391.536H131.292V386.272H134.54V393.972H117.488V386.272ZM120.876 380.056L124.264 381.036C123.228 382.548 122.136 384.032 121.24 385.012L118.524 384.088C119.336 382.996 120.344 381.288 120.876 380.056ZM128.716 382.212L130.844 380.588C133.196 381.708 136.08 383.472 137.676 384.648L135.52 386.496C133.952 385.208 131.068 383.332 128.716 382.212ZM114.66 383.276C119.504 383.248 127.26 383.136 134.54 382.968L134.428 385.264C127.4 385.572 119.896 385.824 114.8 385.992L114.66 383.276ZM154.448 377.228L157.472 377.816C156.464 382.464 154.616 386.916 152.348 389.716C151.816 389.212 150.5 388.26 149.8 387.84C152.04 385.376 153.608 381.372 154.448 377.228ZM163.856 381.596H167.02C167.02 381.596 166.992 382.688 166.964 383.108C166.432 395.68 165.928 400.272 164.864 401.672C164.22 402.624 163.604 402.96 162.68 403.128C161.896 403.296 160.72 403.296 159.488 403.24C159.404 402.288 159.068 400.86 158.564 399.936C159.6 400.048 160.552 400.076 161.084 400.076C161.504 400.076 161.756 399.936 162.092 399.544C162.876 398.564 163.408 394.224 163.856 382.324V381.596ZM155.288 381.596H165.284V384.704H153.748L155.288 381.596ZM157.248 382.604L159.684 383.808C158.564 388.624 156.1 394.168 153.048 397.024C152.404 396.38 151.34 395.596 150.472 395.12C153.72 392.572 156.184 387.308 157.248 382.604ZM161.14 382.912L163.744 384.116C162.4 391.396 159.432 399.012 154.812 402.876C154.168 402.204 152.992 401.364 152.068 400.916C156.968 397.416 159.852 390.108 161.14 382.912ZM140.728 392.488C143.472 391.872 147.56 390.724 151.424 389.632L151.872 392.6C148.344 393.692 144.508 394.84 141.54 395.708L140.728 392.488ZM145.768 377.228H148.848V403.52H145.768V377.228ZM142.072 378.824L144.872 379.3C144.508 382.996 143.836 386.916 142.828 389.408C142.324 389.016 141.12 388.232 140.448 387.896C141.344 385.656 141.82 382.156 142.072 378.824ZM142.828 382.632H151.172V385.852H142.212L142.828 382.632ZM184.548 381.82C184.156 384.676 183.596 387.952 182.616 391.256C180.936 396.912 178.528 400.384 175.476 400.384C172.34 400.384 169.764 396.94 169.764 392.208C169.764 385.768 175.392 380.224 182.644 380.224C189.56 380.224 193.956 385.04 193.956 391.172C193.956 397.052 190.344 401.224 183.288 402.316L181.16 399.012C182.252 398.872 183.036 398.732 183.792 398.564C187.348 397.696 190.148 395.148 190.148 391.032C190.148 386.636 187.404 383.5 182.56 383.5C176.624 383.5 173.376 388.344 173.376 391.872C173.376 394.7 174.496 396.072 175.56 396.072C176.764 396.072 177.828 394.28 179.004 390.5C179.816 387.868 180.432 384.648 180.712 381.708L184.548 381.82ZM207.312 387.84V392.684H212.268V387.84H207.312ZM204.148 384.9H215.628V395.596H204.148V384.9ZM197.988 378.18H222.012V403.52H218.372V381.596H201.46V403.52H197.988V378.18ZM199.948 398.872H220.444V402.008H199.948V398.872ZM224.644 394.784C226.884 394.336 230.16 393.552 233.296 392.768L233.716 395.932C230.86 396.744 227.836 397.556 225.372 398.2L224.644 394.784ZM231.84 377.396H235.116V403.492H231.84V377.396ZM226.576 380.476H229.712V395.568H226.576V380.476ZM236.096 379.104H247.772V382.408H236.096V379.104ZM246.988 379.104H247.548L248.164 378.992L250.404 379.636C249.032 391.76 244.58 399.348 237.356 403.492C236.852 402.596 235.844 401.224 235.06 400.58C241.5 397.36 245.784 389.856 246.988 379.86V379.104ZM240.212 382.604C241.78 390.724 245.112 397.5 251.468 400.58C250.684 401.224 249.592 402.596 249.06 403.52C242.228 399.768 238.924 392.6 237.02 383.22L240.212 382.604Z" fill="#333333"/>
<path d="M518.412 535.72H533.644V538.884H518.412V535.72ZM515.388 527.292H523.312V530.204H515.388V527.292ZM514.772 542.076H537.088V545.156H514.772V542.076ZM522.136 527.292H522.724L523.312 527.18L525.552 528.216C523.648 533.928 519.448 537.932 514.66 540.2C514.212 539.444 513.288 538.296 512.616 537.68C516.788 535.944 520.68 532.136 522.136 527.88V527.292ZM520.792 537.316H524.124V542.16C524.124 546.136 523.116 550.308 516.2 552.632C515.78 551.876 514.744 550.56 514.044 549.972C520.008 548.096 520.792 544.988 520.792 542.104V537.316ZM529.052 526.256C530.844 531.072 534.512 535.244 539.44 537.204C538.656 537.876 537.62 539.22 537.088 540.116C531.88 537.652 528.24 532.948 526.056 527.124L529.052 526.256ZM514.52 532.388L516.648 530.624C517.712 531.38 519.168 532.472 519.896 533.228L517.684 535.16C517.012 534.432 515.612 533.228 514.52 532.388ZM532.972 526.676L535.492 528.44C534.036 529.784 532.328 531.184 531.012 532.052L528.996 530.512C530.256 529.532 531.992 527.88 532.972 526.676ZM536.304 529.868L538.768 531.604C537.256 532.976 535.408 534.432 533.98 535.384L531.964 533.844C533.336 532.836 535.212 531.128 536.304 529.868ZM527.596 537.456H531.096V548.18C531.096 549.216 531.208 549.356 531.992 549.356C532.328 549.356 533.728 549.356 534.12 549.356C534.876 549.356 535.016 548.824 535.128 546.192C535.828 546.724 537.2 547.284 538.124 547.48C537.816 551.204 536.92 552.352 534.456 552.352C533.84 552.352 531.992 552.352 531.376 552.352C528.324 552.352 527.596 551.344 527.596 548.18V537.456ZM545.88 543.112H561.784V545.1H545.88V543.112ZM545.908 539.612H563.716V548.6H545.908V546.332H560.384V541.852H545.908V539.612ZM552.096 540.844H555.316V548.684C555.316 549.72 555.624 549.888 557.332 549.888C558.116 549.888 561.644 549.888 562.652 549.888C564.052 549.888 564.332 549.44 564.5 547.06C565.2 547.536 566.46 547.956 567.328 548.124C566.936 551.54 565.984 552.436 562.932 552.436C562.036 552.436 557.864 552.436 557.024 552.436C553.16 552.436 552.096 551.624 552.096 548.684V540.844ZM544.228 539.612H547.448V549.832H544.228V539.612ZM543.556 527.236H564.332V529.7H543.556V527.236ZM545.712 533.928H551.256V535.748H545.712V533.928ZM545.18 536.728H551.256V538.548H545.18V536.728ZM556.604 536.728H562.736V538.548H556.604V536.728ZM556.604 533.928H562.092V535.748H556.604V533.928ZM552.264 528.216H555.54V538.856H552.264V528.216ZM541.652 530.736H566.376V536.476H563.268V532.976H544.62V536.476H541.652V530.736ZM573.88 528.104H591.072V531.296H573.88V528.104ZM573.88 534.544H591.128V537.68H573.88V534.544ZM573.824 541.152H591.24V544.316H573.824V541.152ZM571.948 528.104H575.28V538.184C575.28 542.636 574.72 548.936 571.276 552.688C570.744 552.044 569.372 550.924 568.644 550.504C571.696 547.116 571.948 542.104 571.948 538.156V528.104ZM589.896 528.104H593.228V548.572C593.228 550.364 592.836 551.26 591.716 551.792C590.54 552.324 588.86 552.38 586.312 552.352C586.172 551.456 585.668 550 585.22 549.132C586.816 549.244 588.664 549.216 589.168 549.216C589.7 549.188 589.896 549.02 589.896 548.544V528.104ZM580.572 529.364H583.988V552.184H580.572V529.364ZM608.516 530.428C611.96 530.904 617.56 530.764 620.556 530.4V534.012C617.14 534.348 612.044 534.348 608.544 534.012L608.516 530.428ZM610.756 542.384C610.532 543.336 610.42 544.008 610.42 544.736C610.42 545.996 611.512 546.752 614.368 546.752C616.86 546.752 618.932 546.528 621.368 545.996L621.452 549.776C619.632 550.14 617.364 550.336 614.2 550.336C609.384 550.336 607.06 548.6 607.06 545.744C607.06 544.624 607.228 543.532 607.564 542.104L610.756 542.384ZM604.204 528.552C604.008 529.14 603.644 530.568 603.532 531.072C603.14 532.92 602.16 538.52 602.16 541.32C602.16 541.88 602.188 542.58 602.272 543.14C602.692 542.188 603.14 541.236 603.56 540.284L605.296 541.656C604.484 544.008 603.56 547.032 603.28 548.516C603.196 548.936 603.112 549.552 603.112 549.832C603.14 550.14 603.14 550.616 603.168 551.008L599.948 551.204C599.388 549.3 598.856 545.884 598.856 542.076C598.856 537.848 599.696 533.144 600.004 530.96C600.116 530.204 600.256 529.14 600.284 528.244L604.204 528.552ZM624.84 543H651.16V546.08H624.84V543ZM625.988 527.74H650.04V530.82H625.988V527.74ZM630.384 537.876H645.84V540.732H630.384V537.876ZM644.608 532.668H647.94V548.88C647.94 550.588 647.576 551.484 646.4 552.016C645.252 552.52 643.6 552.576 641.22 552.576C641.052 551.68 640.52 550.224 640.044 549.412C641.584 549.496 643.432 549.468 643.908 549.44C644.412 549.44 644.608 549.3 644.608 548.852V532.668ZM628.032 532.668H645.924V535.692H631.364V552.548H628.032V532.668ZM636.18 528.664H639.568V544.064H636.18V528.664ZM653.204 534.544H666.644V537.652H653.204V534.544ZM667.988 529.616H671.264V545.352H667.988V529.616ZM658.552 529H661.856V552.492H658.552V529ZM674.624 526.76H677.956V548.404C677.956 550.392 677.564 551.316 676.416 551.876C675.24 552.408 673.392 552.52 670.816 552.52C670.648 551.54 670.116 550 669.64 549.048C671.488 549.104 673.28 549.104 673.868 549.104C674.4 549.104 674.624 548.936 674.624 548.404V526.76ZM664.18 526.34L666.588 528.916C663.032 530.316 658.104 531.268 653.876 531.856C653.736 531.1 653.26 529.924 652.868 529.224C656.956 528.608 661.464 527.572 664.18 526.34ZM658.524 536.028L660.792 537.008C659.392 541.208 656.928 546.22 654.296 549.02C653.96 548.012 653.12 546.612 652.56 545.716C654.968 543.392 657.404 539.304 658.524 536.028ZM661.352 538.856C662.444 539.556 665.916 542.468 666.728 543.196L664.824 546.08C663.592 544.568 660.988 541.852 659.616 540.592L661.352 538.856ZM685.88 528.104H703.072V531.296H685.88V528.104ZM685.88 534.544H703.128V537.68H685.88V534.544ZM685.824 541.152H703.24V544.316H685.824V541.152ZM683.948 528.104H687.28V538.184C687.28 542.636 686.72 548.936 683.276 552.688C682.744 552.044 681.372 550.924 680.644 550.504C683.696 547.116 683.948 542.104 683.948 538.156V528.104ZM701.896 528.104H705.228V548.572C705.228 550.364 704.836 551.26 703.716 551.792C702.54 552.324 700.86 552.38 698.312 552.352C698.172 551.456 697.668 550 697.22 549.132C698.816 549.244 700.664 549.216 701.168 549.216C701.7 549.188 701.896 549.02 701.896 548.544V528.104ZM692.572 529.364H695.988V552.184H692.572V529.364Z" fill="#333333"/>
<path d="M909.7 222.164H915.832V224.628H909.7V222.164ZM911.968 228.156H924.484V230.928H911.968V228.156ZM909.056 233.364H927.732V236.22H909.056V233.364ZM914.88 222.164H915.356L915.86 222.052L917.764 222.948C916.224 227.4 912.976 230.872 909.392 232.804C908.972 232.076 908.16 230.928 907.544 230.368C910.764 228.94 913.788 225.832 914.88 222.64V222.164ZM924.232 221.688L926.36 223.228C925.212 224.236 923.784 225.132 922.692 225.748L920.816 224.264C921.852 223.648 923.364 222.5 924.232 221.688ZM926.892 224.628L929.076 226.28C927.816 227.316 926.164 228.268 924.932 228.912L923.028 227.344C924.232 226.672 925.912 225.496 926.892 224.628ZM921.236 221.352C922.692 225.16 925.66 228.492 929.552 230.06C928.852 230.62 927.928 231.824 927.452 232.608C923.28 230.648 920.284 226.812 918.52 222.108L921.236 221.352ZM913.62 229.78H916.7V234.148C916.7 237.564 915.804 240.868 909.812 242.66C909.476 241.96 908.524 240.756 907.908 240.196C912.948 238.796 913.62 236.444 913.62 234.064V229.78ZM919.808 229.724H922.972V238.684C922.972 239.58 923.084 239.692 923.672 239.692C923.924 239.692 924.988 239.692 925.296 239.692C925.828 239.692 925.968 239.272 926.052 237.116C926.696 237.592 927.956 238.068 928.796 238.264C928.488 241.512 927.676 242.436 925.632 242.436C925.072 242.436 923.644 242.436 923.112 242.436C920.424 242.436 919.808 241.568 919.808 238.712V229.724ZM908.804 226.672L910.54 224.852C911.66 225.44 913.116 226.392 913.816 227.064L911.996 229.108C911.324 228.408 909.924 227.344 908.804 226.672ZM915.132 216.228H918.632V219.84H915.132V216.228ZM906.424 218.272H928.544V221.072H906.424V218.272ZM904.856 218.272H907.964V227.848C907.964 232.216 907.544 238.544 905.052 242.464C904.492 241.876 903.176 240.84 902.476 240.476C904.66 236.92 904.856 231.74 904.856 227.82V218.272ZM931.512 234.12H956.516V236.752H931.512V234.12ZM931.512 226.756H956.516V229.22H931.512V226.756ZM931.624 217.992H956.628V220.596H931.624V217.992ZM942.236 232.496H945.652V242.492H942.236V232.496ZM942.292 225.076H945.512V231.572H942.292V225.076ZM942.32 216.228H945.792V219.616H942.32V216.228ZM941.48 235.24L943.748 236.276C941.2 238.992 936.804 241.316 932.856 242.436C932.408 241.652 931.484 240.448 930.812 239.804C934.788 239.02 939.184 237.256 941.48 235.24ZM946.408 235.268C948.76 237.2 953.296 238.908 957.272 239.692C956.572 240.308 955.62 241.568 955.144 242.352C951.28 241.26 946.772 238.964 944.14 236.388L946.408 235.268ZM935.488 225.272H938.568V230.536H949.292V225.272H952.54V232.972H935.488V225.272ZM938.876 219.056L942.264 220.036C941.228 221.548 940.136 223.032 939.24 224.012L936.524 223.088C937.336 221.996 938.344 220.288 938.876 219.056ZM946.716 221.212L948.844 219.588C951.196 220.708 954.08 222.472 955.676 223.648L953.52 225.496C951.952 224.208 949.068 222.332 946.716 221.212ZM932.66 222.276C937.504 222.248 945.26 222.136 952.54 221.968L952.428 224.264C945.4 224.572 937.896 224.824 932.8 224.992L932.66 222.276ZM972.448 216.228L975.472 216.816C974.464 221.464 972.616 225.916 970.348 228.716C969.816 228.212 968.5 227.26 967.8 226.84C970.04 224.376 971.608 220.372 972.448 216.228ZM981.856 220.596H985.02C985.02 220.596 984.992 221.688 984.964 222.108C984.432 234.68 983.928 239.272 982.864 240.672C982.22 241.624 981.604 241.96 980.68 242.128C979.896 242.296 978.72 242.296 977.488 242.24C977.404 241.288 977.068 239.86 976.564 238.936C977.6 239.048 978.552 239.076 979.084 239.076C979.504 239.076 979.756 238.936 980.092 238.544C980.876 237.564 981.408 233.224 981.856 221.324V220.596ZM973.288 220.596H983.284V223.704H971.748L973.288 220.596ZM975.248 221.604L977.684 222.808C976.564 227.624 974.1 233.168 971.048 236.024C970.404 235.38 969.34 234.596 968.472 234.12C971.72 231.572 974.184 226.308 975.248 221.604ZM979.14 221.912L981.744 223.116C980.4 230.396 977.432 238.012 972.812 241.876C972.168 241.204 970.992 240.364 970.068 239.916C974.968 236.416 977.852 229.108 979.14 221.912ZM958.728 231.488C961.472 230.872 965.56 229.724 969.424 228.632L969.872 231.6C966.344 232.692 962.508 233.84 959.54 234.708L958.728 231.488ZM963.768 216.228H966.848V242.52H963.768V216.228ZM960.072 217.824L962.872 218.3C962.508 221.996 961.836 225.916 960.828 228.408C960.324 228.016 959.12 227.232 958.448 226.896C959.344 224.656 959.82 221.156 960.072 217.824ZM960.828 221.632H969.172V224.852H960.212L960.828 221.632ZM992.412 225.72H1007.64V228.884H992.412V225.72ZM989.388 217.292H997.312V220.204H989.388V217.292ZM988.772 232.076H1011.09V235.156H988.772V232.076ZM996.136 217.292H996.724L997.312 217.18L999.552 218.216C997.648 223.928 993.448 227.932 988.66 230.2C988.212 229.444 987.288 228.296 986.616 227.68C990.788 225.944 994.68 222.136 996.136 217.88V217.292ZM994.792 227.316H998.124V232.16C998.124 236.136 997.116 240.308 990.2 242.632C989.78 241.876 988.744 240.56 988.044 239.972C994.008 238.096 994.792 234.988 994.792 232.104V227.316ZM1003.05 216.256C1004.84 221.072 1008.51 225.244 1013.44 227.204C1012.66 227.876 1011.62 229.22 1011.09 230.116C1005.88 227.652 1002.24 222.948 1000.06 217.124L1003.05 216.256ZM988.52 222.388L990.648 220.624C991.712 221.38 993.168 222.472 993.896 223.228L991.684 225.16C991.012 224.432 989.612 223.228 988.52 222.388ZM1006.97 216.676L1009.49 218.44C1008.04 219.784 1006.33 221.184 1005.01 222.052L1003 220.512C1004.26 219.532 1005.99 217.88 1006.97 216.676ZM1010.3 219.868L1012.77 221.604C1011.26 222.976 1009.41 224.432 1007.98 225.384L1005.96 223.844C1007.34 222.836 1009.21 221.128 1010.3 219.868ZM1001.6 227.456H1005.1V238.18C1005.1 239.216 1005.21 239.356 1005.99 239.356C1006.33 239.356 1007.73 239.356 1008.12 239.356C1008.88 239.356 1009.02 238.824 1009.13 236.192C1009.83 236.724 1011.2 237.284 1012.12 237.48C1011.82 241.204 1010.92 242.352 1008.46 242.352C1007.84 242.352 1005.99 242.352 1005.38 242.352C1002.32 242.352 1001.6 241.344 1001.6 238.18V227.456ZM1019.88 233.112H1035.78V235.1H1019.88V233.112ZM1019.91 229.612H1037.72V238.6H1019.91V236.332H1034.38V231.852H1019.91V229.612ZM1026.1 230.844H1029.32V238.684C1029.32 239.72 1029.62 239.888 1031.33 239.888C1032.12 239.888 1035.64 239.888 1036.65 239.888C1038.05 239.888 1038.33 239.44 1038.5 237.06C1039.2 237.536 1040.46 237.956 1041.33 238.124C1040.94 241.54 1039.98 242.436 1036.93 242.436C1036.04 242.436 1031.86 242.436 1031.02 242.436C1027.16 242.436 1026.1 241.624 1026.1 238.684V230.844ZM1018.23 229.612H1021.45V239.832H1018.23V229.612ZM1017.56 217.236H1038.33V219.7H1017.56V217.236ZM1019.71 223.928H1025.26V225.748H1019.71V223.928ZM1019.18 226.728H1025.26V228.548H1019.18V226.728ZM1030.6 226.728H1036.74V228.548H1030.6V226.728ZM1030.6 223.928H1036.09V225.748H1030.6V223.928ZM1026.26 218.216H1029.54V228.856H1026.26V218.216ZM1015.65 220.736H1040.38V226.476H1037.27V222.976H1018.62V226.476H1015.65V220.736ZM1065.32 223.676C1064.46 224.18 1063.56 224.684 1062.52 225.188C1060.79 226.056 1057.29 227.708 1054.71 229.36C1052.39 230.872 1050.82 232.496 1050.82 234.428C1050.82 236.444 1052.78 237.536 1056.67 237.536C1059.53 237.536 1063.31 237.088 1065.8 236.5L1065.77 240.532C1063.36 240.924 1060.42 241.232 1056.78 241.232C1051.18 241.232 1046.96 239.664 1046.96 234.848C1046.96 231.292 1049.56 228.8 1052.89 226.616C1055.55 224.852 1059.08 223.116 1060.79 222.136C1061.85 221.52 1062.64 221.044 1063.36 220.456L1065.32 223.676ZM1051.24 217.684C1052.58 221.408 1054.35 224.768 1055.66 227.12L1052.47 228.968C1050.93 226.42 1049.25 222.752 1047.71 219.14L1051.24 217.684ZM902.84 273H929.16V276.08H902.84V273ZM903.988 257.74H928.04V260.82H903.988V257.74ZM908.384 267.876H923.84V270.732H908.384V267.876ZM922.608 262.668H925.94V278.88C925.94 280.588 925.576 281.484 924.4 282.016C923.252 282.52 921.6 282.576 919.22 282.576C919.052 281.68 918.52 280.224 918.044 279.412C919.584 279.496 921.432 279.468 921.908 279.44C922.412 279.44 922.608 279.3 922.608 278.852V262.668ZM906.032 262.668H923.924V265.692H909.364V282.548H906.032V262.668ZM914.18 258.664H917.568V274.064H914.18V258.664ZM935.796 261.296H955.284V264.572H935.796V261.296ZM934.648 269.556H954.22V272.776H934.648V269.556ZM931.4 278.432H956.712V281.708H931.4V278.432ZM942.292 256.228H945.792V280.056H942.292V256.228ZM935.824 256.564L939.296 257.348C938.064 261.688 936.02 266 933.836 268.688C933.164 268.1 931.68 267.12 930.812 266.644C933.024 264.292 934.816 260.428 935.824 256.564ZM963.88 273.112H979.784V275.1H963.88V273.112ZM963.908 269.612H981.716V278.6H963.908V276.332H978.384V271.852H963.908V269.612ZM970.096 270.844H973.316V278.684C973.316 279.72 973.624 279.888 975.332 279.888C976.116 279.888 979.644 279.888 980.652 279.888C982.052 279.888 982.332 279.44 982.5 277.06C983.2 277.536 984.46 277.956 985.328 278.124C984.936 281.54 983.984 282.436 980.932 282.436C980.036 282.436 975.864 282.436 975.024 282.436C971.16 282.436 970.096 281.624 970.096 278.684V270.844ZM962.228 269.612H965.448V279.832H962.228V269.612ZM961.556 257.236H982.332V259.7H961.556V257.236ZM963.712 263.928H969.256V265.748H963.712V263.928ZM963.18 266.728H969.256V268.548H963.18V266.728ZM974.604 266.728H980.736V268.548H974.604V266.728ZM974.604 263.928H980.092V265.748H974.604V263.928ZM970.264 258.216H973.54V268.856H970.264V258.216ZM959.652 260.736H984.376V266.476H981.268V262.976H962.62V266.476H959.652V260.736ZM988.1 262.052H1009.55V265.496H988.1V262.052ZM1008.18 262.052H1011.68C1011.68 262.052 1011.65 263.2 1011.59 263.676C1011.03 274.876 1010.47 279.132 1009.21 280.616C1008.4 281.68 1007.59 281.988 1006.36 282.156C1005.29 282.324 1003.56 282.296 1001.85 282.212C1001.79 281.232 1001.32 279.72 1000.67 278.74C1002.46 278.88 1004.12 278.908 1004.87 278.908C1005.43 278.908 1005.77 278.796 1006.16 278.432C1007.14 277.48 1007.7 273.056 1008.18 262.724V262.052ZM996.696 256.284H1000.25V262.052C1000.25 268.408 999.356 277.284 989.836 282.66C989.304 281.848 988.044 280.532 987.204 279.944C995.912 275.212 996.696 267.456 996.696 262.052V256.284ZM1030.55 260.82C1030.16 263.676 1029.6 266.952 1028.62 270.256C1026.94 275.912 1024.53 279.384 1021.48 279.384C1018.34 279.384 1015.76 275.94 1015.76 271.208C1015.76 264.768 1021.39 259.224 1028.64 259.224C1035.56 259.224 1039.96 264.04 1039.96 270.172C1039.96 276.052 1036.34 280.224 1029.29 281.316L1027.16 278.012C1028.25 277.872 1029.04 277.732 1029.79 277.564C1033.35 276.696 1036.15 274.148 1036.15 270.032C1036.15 265.636 1033.4 262.5 1028.56 262.5C1022.62 262.5 1019.38 267.344 1019.38 270.872C1019.38 273.7 1020.5 275.072 1021.56 275.072C1022.76 275.072 1023.83 273.28 1025 269.5C1025.82 266.868 1026.43 263.648 1026.71 260.708L1030.55 260.82ZM1048.78 256.256L1051.94 257.264C1050.15 262.024 1047.24 267.064 1044.18 270.284C1043.88 269.472 1042.95 267.624 1042.39 266.784C1044.91 264.264 1047.35 260.26 1048.78 256.256ZM1045.95 264.068L1049.25 260.792V260.82V282.492H1045.95V264.068ZM1051.52 261.688H1068.85V264.908H1051.52V261.688ZM1050.85 270.508H1069.1V273.784H1050.85V270.508ZM1054.63 256.452H1057.9V272.188H1054.63V256.452ZM1061.94 256.396H1065.24V272.244H1061.94V256.396ZM1055.36 274.904L1058.52 275.912C1057.12 278.348 1054.85 280.84 1052.89 282.408C1052.28 281.82 1051.02 280.756 1050.26 280.308C1052.25 278.992 1054.21 276.92 1055.36 274.904ZM1061.52 276.388L1064.18 274.904C1066 276.668 1067.96 279.048 1068.94 280.7L1066.11 282.464C1065.24 280.784 1063.25 278.236 1061.52 276.388ZM1084.28 265.216H1093.55V268.24H1084.28V265.216ZM1084.59 278.04H1093.94V281.008H1084.59V278.04ZM1088.73 260.008C1087.22 262.528 1084.64 265.804 1081.84 267.932C1081.42 267.036 1080.58 265.748 1079.94 265.02C1082.8 262.976 1085.65 259.28 1087 256.648H1090.19C1092.12 259.588 1094.95 262.948 1097.66 264.656C1096.96 265.496 1096.18 266.728 1095.62 267.764C1093.1 265.804 1090.27 262.444 1088.73 260.008ZM1082.82 270.732H1095.31V282.38H1092.09V273.7H1085.9V282.492H1082.82V270.732ZM1075.04 256.256L1077.95 257.348C1076.8 259.476 1075.52 261.968 1074.42 263.536L1072.18 262.556C1073.19 260.904 1074.4 258.216 1075.04 256.256ZM1078.26 259.56L1080.98 260.792C1078.96 264.012 1076.22 267.904 1074.09 270.34L1072.16 269.248C1074.23 266.7 1076.8 262.584 1078.26 259.56ZM1070.73 262.892L1072.32 260.596C1073.81 261.884 1075.54 263.648 1076.27 264.936L1074.54 267.54C1073.86 266.196 1072.16 264.236 1070.73 262.892ZM1077.42 266.252L1079.63 265.328C1080.72 267.204 1081.79 269.668 1082.12 271.292L1079.74 272.356C1079.44 270.732 1078.48 268.184 1077.42 266.252ZM1070.7 268.576C1073.28 268.492 1077.06 268.352 1080.75 268.184L1080.72 270.844C1077.28 271.096 1073.7 271.32 1070.98 271.516L1070.7 268.576ZM1078.04 273.224L1080.39 272.468C1081.09 274.064 1081.82 276.164 1082.12 277.564L1079.66 278.432C1079.38 277.032 1078.65 274.876 1078.04 273.224ZM1071.9 272.692L1074.68 273.168C1074.4 275.856 1073.78 278.656 1072.97 280.448C1072.38 280.084 1071.12 279.496 1070.42 279.216C1071.23 277.564 1071.68 275.072 1071.9 272.692ZM1075.04 270.06H1077.98V282.548H1075.04V270.06Z" fill="#333333"/>
<circle cx="636" cy="111" r="106" fill="#D9D9D9"/>
<path d="M588.568 73.828C588.428 74.22 588.288 74.892 588.26 75.116C587.896 77.944 586.664 85.532 586.272 88.08H582.156C582.604 85.56 583.808 78.364 583.892 76.348C581.708 76.348 575.996 76.348 574.232 76.348C573.084 76.348 572.048 76.404 571.04 76.488V72.54C571.964 72.652 573.252 72.736 574.204 72.736C575.968 72.736 581.344 72.736 583.024 72.736C583.752 72.736 585.152 72.596 585.628 72.372L588.568 73.828ZM567.988 86.932C568.884 87.1 569.892 87.156 570.76 87.156H589.408C590.416 87.156 591.312 87.044 592.04 86.932V91.02C591.256 90.908 590.08 90.852 589.408 90.852H570.76C569.892 90.852 568.912 90.908 567.988 91.02V86.932ZM596.548 79.036C597.584 79.12 599.6 79.232 601.056 79.232C604.36 79.232 613.6 79.232 616.092 79.232C617.408 79.232 618.64 79.092 619.396 79.036V83.46C618.724 83.432 617.296 83.292 616.12 83.292C613.572 83.292 604.36 83.292 601.056 83.292C599.488 83.292 597.612 83.376 596.548 83.46V79.036ZM644.329 70.244C644.861 71.336 645.477 72.96 645.785 74.052L643.853 74.696C643.461 73.492 642.985 71.98 642.425 70.832L644.329 70.244ZM647.213 69.348C647.745 70.44 648.389 72.092 648.725 73.156L646.821 73.772C646.401 72.54 645.869 71.056 645.309 69.936L647.213 69.348ZM641.921 80.072C641.921 86.988 640.241 91.244 633.493 94.212L630.469 91.384C635.901 89.508 638.253 87.072 638.253 80.212V72.764C638.253 71.616 638.197 70.692 638.113 70.16H642.089C642.033 70.72 641.921 71.616 641.921 72.764V80.072ZM631.785 70.412C631.729 70.916 631.617 71.812 631.617 72.932V82.956C631.617 84.188 631.701 85.336 631.757 85.868H627.837C627.893 85.336 627.977 84.216 627.977 82.956V72.932C627.977 72.12 627.921 71.252 627.809 70.412H631.785ZM622.573 75.452C623.077 75.536 624.225 75.704 625.625 75.704H643.965C645.449 75.704 646.289 75.648 647.073 75.508V79.232C646.457 79.148 645.449 79.148 643.993 79.148H625.625C624.197 79.148 623.217 79.204 622.573 79.26V75.452ZM652.001 79.036C653.037 79.12 655.053 79.232 656.509 79.232C659.813 79.232 669.053 79.232 671.545 79.232C672.861 79.232 674.093 79.092 674.849 79.036V83.46C674.177 83.432 672.749 83.292 671.573 83.292C669.025 83.292 659.813 83.292 656.509 83.292C654.941 83.292 653.065 83.376 652.001 83.46V79.036ZM688.569 71.336H703.941V73.996H688.569V71.336ZM689.325 75.088H703.353V77.608H689.325V75.088ZM688.037 78.812H704.445V81.556H688.037V78.812ZM699.349 68.172L702.681 68.984C701.925 70.244 701.169 71.476 700.609 72.288L697.977 71.532C698.481 70.552 699.069 69.152 699.349 68.172ZM690.361 69.152L692.993 68.284C693.637 69.236 694.337 70.524 694.589 71.392L691.789 72.4C691.565 71.532 690.949 70.16 690.361 69.152ZM701.785 82.088L704.305 83.88C703.073 85.168 701.589 86.54 700.469 87.436L698.313 85.784C699.405 84.86 700.917 83.264 701.785 82.088ZM688.569 83.684L690.865 82.172C691.873 83.208 693.105 84.636 693.665 85.616L691.257 87.296C690.753 86.288 689.577 84.776 688.569 83.684ZM686.945 90.012C688.625 89.256 691.089 87.996 693.497 86.764L694.365 89.48C692.405 90.628 690.193 91.86 688.401 92.84L686.945 90.012ZM694.645 73.128H697.865V91.188C697.865 92.7 697.613 93.512 696.717 94.016C695.793 94.52 694.449 94.576 692.685 94.576C692.601 93.708 692.209 92.392 691.817 91.608C692.769 91.636 693.861 91.636 694.197 91.636C694.533 91.636 694.645 91.496 694.645 91.188V73.128ZM697.697 82.088C698.929 85.84 701.393 89.06 704.977 90.516C704.305 91.132 703.325 92.364 702.849 93.232C699.209 91.216 696.829 87.296 695.513 82.592L697.697 82.088ZM678.685 74.024H687.953V77.132H678.685V74.024ZM682.101 68.228H685.153V94.52H682.101V68.228ZM682.045 76.152L683.921 76.796C683.109 81.22 681.513 86.624 679.525 89.508C679.245 88.612 678.517 87.324 678.041 86.54C679.833 84.104 681.401 79.708 682.045 76.152ZM685.013 78.196C685.629 78.952 687.925 82.48 688.401 83.264L686.665 85.672C686.049 84.048 684.369 80.856 683.613 79.54L685.013 78.196ZM584.564 121.36C584.564 115.396 587.056 110.916 590.08 107.92L592.74 109.124C589.912 112.12 587.728 116.012 587.728 121.36C587.728 126.736 589.912 130.628 592.74 133.624L590.08 134.828C587.056 131.832 584.564 127.352 584.564 121.36ZM608.168 109.684H620.376V112.708H608.168V109.684ZM607.188 109.684H610.268V120.268C610.268 124.692 609.904 130.824 607.188 134.632C606.628 134.1 605.256 133.204 604.528 132.896C607.02 129.396 607.188 124.272 607.188 120.268V109.684ZM617.1 116.684H617.688L618.248 116.6L620.208 117.048C619.2 126.204 615.952 131.58 610.436 134.464C610.016 133.624 609.176 132.336 608.504 131.72C613.292 129.62 616.288 124.468 617.1 117.216V116.684ZM612.256 118.728C613.6 124.692 616.512 129.648 621.468 131.916C620.74 132.504 619.76 133.764 619.284 134.604C613.992 131.748 611.136 126.344 609.512 119.316L612.256 118.728ZM609.064 116.684H617.912V119.596H609.064V116.684ZM597.556 127.604L600.636 128.332C599.88 130.712 598.536 133.12 597.136 134.632C596.548 134.128 595.26 133.232 594.504 132.84C595.876 131.552 596.996 129.564 597.556 127.604ZM600.972 128.64L603.576 127.52C604.444 128.668 605.368 130.18 605.816 131.216L603.1 132.532C602.708 131.496 601.784 129.844 600.972 128.64ZM599.18 117.048V119.624H602.176V117.048H599.18ZM599.18 122.088V124.72H602.176V122.088H599.18ZM599.18 111.98V114.556H602.176V111.98H599.18ZM596.212 109.32H605.284V127.38H596.212V109.32ZM623.596 110.468H648.376V113.52H623.596V110.468ZM626.284 115.34H645.828V118.28H626.284V115.34ZM623.988 119.68H648.04V125.672H644.652V122.676H627.208V125.672H623.988V119.68ZM634.096 108.256H637.596V116.964H634.096V108.256ZM637.456 123.572H640.844V130.152C640.844 131.048 641.012 131.16 641.992 131.16C642.468 131.16 644.288 131.16 644.82 131.16C645.744 131.16 645.94 130.712 646.024 127.828C646.724 128.36 648.152 128.892 649.048 129.088C648.684 133.148 647.816 134.184 645.156 134.184C644.456 134.184 642.188 134.184 641.544 134.184C638.268 134.184 637.456 133.232 637.456 130.208V123.572ZM630.54 123.544H634.04C633.62 129.2 632.388 132.784 624.66 134.632C624.352 133.736 623.512 132.42 622.812 131.72C629.532 130.404 630.204 127.912 630.54 123.544ZM665.876 117.748H676.46V120.716H665.876V117.748ZM659.884 130.544H673.044V133.512H659.884V130.544ZM664.28 115.116H667.696V125.504H664.28V115.116ZM658.12 123.768H674.836V134.492H671.392V126.736H661.396V134.52H658.12V123.768ZM663.132 108.228H666.632V113.324H663.132V108.228ZM654.732 111.504H676.852V114.696H654.732V111.504ZM653.08 111.504H656.44V118.588C656.44 123.124 656.02 130.068 653.472 134.464C652.856 133.904 651.372 132.924 650.56 132.588C652.912 128.556 653.08 122.648 653.08 118.588V111.504ZM687.408 121.36C687.408 127.352 684.916 131.832 681.892 134.828L679.232 133.624C682.06 130.628 684.244 126.736 684.244 121.36C684.244 116.012 682.06 112.12 679.232 109.124L681.892 107.92C684.916 110.916 687.408 115.396 687.408 121.36Z" fill="#333333"/>
<circle cx="460" cy="399" r="106" fill="#D9D9D9"/>
<path d="M382.596 380.672H407.376V383.808H382.596V380.672ZM384.444 386.888H405.724V390.08H384.444V386.888ZM387.468 399.488H402.336V402.568H387.468V399.488ZM393.18 377.228H396.736V388.456H393.18V377.228ZM385.48 392.376H404.8V403.604H401.104V395.372H388.952V403.604H385.48V392.376ZM413.2 378.628H416.672V388.344C416.672 393.804 416.28 399.516 412.5 403.772C411.884 403.016 410.484 401.896 409.616 401.364C412.836 397.724 413.2 392.964 413.2 388.316V378.628ZM421.796 379.832H425.212V400.804H421.796V379.832ZM430.336 378.6H433.892V403.464H430.336V378.6ZM450.888 380.42C448.564 383.696 444.28 387.364 439.688 389.8C439.268 389.016 438.316 387.784 437.588 387.084C442.404 384.732 446.912 380.532 448.984 377.144H452.484C455.508 381.4 460.016 384.928 464.468 386.748C463.656 387.588 462.872 388.736 462.256 389.772C457.972 387.504 453.296 383.724 450.888 380.42ZM443.86 385.628H457.972V388.568H443.86V385.628ZM440.528 391.34H461.276V394.224H440.528V391.34ZM439.1 399.852H462.9V402.736H439.1V399.852ZM449.04 386.804H452.624V401.28H449.04V386.804ZM442.264 395.288L444.98 394.168C446.044 395.596 447.164 397.528 447.584 398.844L444.672 400.104C444.308 398.816 443.272 396.772 442.264 395.288ZM456.516 394.196L459.708 395.4C458.56 397.108 457.328 398.928 456.348 400.104L453.828 399.068C454.724 397.752 455.9 395.708 456.516 394.196ZM468.556 378.376H471.86V386.636C471.86 391.508 471.44 398.788 468.612 403.38C467.996 402.876 466.512 402.008 465.644 401.728C468.36 397.416 468.556 391.088 468.556 386.636V378.376ZM470.656 378.376H490.228V385.012H470.656V382.464H486.868V380.924H470.656V378.376ZM479.756 386.44H482.78V400.132H479.756V386.44ZM476.396 391.032V392.348H486.224V391.032H476.396ZM473.428 389.156H489.36V394.224H473.428V389.156ZM472.336 395.26H489.304V397.472H475.36V403.52H472.336V395.26ZM487.568 395.26H490.648V400.944C490.648 402.176 490.452 402.764 489.612 403.128C488.8 403.492 487.652 403.492 486.14 403.492C486 402.764 485.636 401.896 485.356 401.252C486.112 401.308 486.924 401.308 487.204 401.28C487.484 401.28 487.568 401.196 487.568 400.944V395.26ZM475.976 399.18C478.468 399.124 482.08 398.984 485.664 398.872L485.636 400.972C482.248 401.196 478.804 401.392 476.172 401.532L475.976 399.18ZM487.4 385.18L489.276 387.056C485.132 387.98 478.804 388.344 473.624 388.372C473.568 387.784 473.26 386.86 473.008 386.328C478.02 386.244 484.068 385.908 487.4 385.18ZM483.76 398.088L485.692 397.64C486.308 398.872 486.924 400.496 487.148 401.504L485.132 402.064C484.908 401.028 484.348 399.376 483.76 398.088ZM495.8 380.14H518.256V383.64H495.8V380.14ZM494.232 398.2H519.852V401.588H494.232V398.2ZM504.956 382.044H508.792V399.544H504.956V382.044ZM522.568 394.364H547.544V397.108H522.568V394.364ZM522.624 381.792H547.432V384.564H522.624V381.792ZM523.772 386.804H546.368V389.436H523.772V386.804ZM525.172 390.668H545.052V393.104H525.172V390.668ZM533.292 388.148H536.624V403.52H533.292V388.148ZM530.856 377.2H533.992V383.108H530.856V377.2ZM536.036 377.2H539.228V382.912H536.036V377.2ZM532.676 395.596L535.308 396.772C532.648 399.684 528.168 402.064 523.856 403.184C523.408 402.372 522.428 401.084 521.7 400.384C525.928 399.572 530.38 397.724 532.676 395.596ZM537.296 395.512C539.564 397.724 543.932 399.46 548.3 400.188C547.544 400.888 546.536 402.288 546.032 403.212C541.608 402.092 537.324 399.712 534.692 396.548L537.296 395.512ZM542.476 377.424L546.004 378.264C545.108 379.804 544.156 381.316 543.428 382.352L540.712 381.512C541.356 380.364 542.084 378.656 542.476 377.424ZM538.78 383.444L542.336 384.256C541.58 385.6 540.852 386.832 540.264 387.728L537.408 386.916C537.912 385.908 538.5 384.48 538.78 383.444ZM524.64 378.32L527.524 377.34C528.336 378.544 529.26 380.224 529.652 381.316L526.6 382.408C526.292 381.316 525.396 379.608 524.64 378.32ZM528.196 384.592L531.444 384.088C531.92 384.872 532.452 385.964 532.676 386.72L529.26 387.308C529.092 386.58 528.616 385.404 528.196 384.592Z" fill="#333333"/>
<circle cx="792" cy="399" r="106" fill="#D9D9D9"/>
<path d="M721.056 369.392C718.032 369.392 716.016 368.188 714.616 365.78L717.472 363.652C718.256 365.164 719.348 365.808 720.524 365.808C722.372 365.808 723.324 364.856 723.324 362V348.28H727.468V362.336C727.468 366.228 725.48 369.392 721.056 369.392ZM732.462 369V348.28H745.23V351.724H736.606V357.156H743.97V360.6H736.606V369H732.462ZM748.841 369V348.28H761.553V351.724H752.985V356.512H760.237V360.012H752.985V365.528H761.861V369H748.841ZM767.384 349.456C768.112 349.568 769.288 349.652 770.044 349.652H785.304C786.144 349.652 787.124 349.568 787.908 349.456V353.32C787.096 353.236 786.116 353.18 785.304 353.18H770.044C769.288 353.18 768.112 353.236 767.384 353.32V349.456ZM775.476 366.704V351.612H779.368V366.704H775.476ZM765.592 364.408C766.488 364.548 767.496 364.632 768.336 364.632H786.816C787.796 364.632 788.692 364.492 789.42 364.408V368.44C788.636 368.356 787.46 368.328 786.816 368.328H768.336C767.524 368.328 766.516 368.356 765.592 368.44V364.408ZM720.748 387.72C722.68 389.036 726.32 391.948 727.972 393.656L725.116 396.568C723.66 395 720.132 391.948 718.088 390.548L720.748 387.72ZM717.22 406.368C721.616 405.752 725.228 404.324 727.944 402.728C732.732 399.872 736.372 395.616 738.164 391.836L740.32 395.756C738.22 399.564 734.496 403.428 729.988 406.144C727.132 407.852 723.52 409.392 719.6 410.064L717.22 406.368ZM762.412 387.524C763.196 388.7 764.344 390.548 764.96 391.836L762.552 392.9C761.712 391.136 761.096 389.932 760.06 388.476L762.412 387.524ZM766.276 386.152C767.144 387.272 768.236 389.12 768.908 390.352L766.5 391.416C765.604 389.652 764.932 388.56 763.896 387.16L766.276 386.152ZM750.26 386.964C752.108 387.972 755.188 389.96 756.644 390.968L754.544 394.076C753.004 392.984 750.064 391.08 748.216 390.044L750.26 386.964ZM745.08 406.844C748.188 406.312 751.548 405.388 754.6 403.708C759.36 401.048 763.252 397.212 765.492 393.208L767.648 397.016C765.044 400.88 761.096 404.436 756.504 407.068C753.676 408.692 749.644 410.092 747.18 410.54L745.08 406.844ZM745.948 393.348C747.824 394.356 750.904 396.288 752.332 397.296L750.288 400.432C748.692 399.34 745.808 397.436 743.904 396.456L745.948 393.348ZM774.732 389.988C775.768 390.1 777.056 390.156 778.036 390.156C780.388 390.156 788.088 390.156 789.628 390.156C790.748 390.156 791.924 390.1 792.736 389.988V394.048C791.924 394.02 790.608 393.964 789.628 393.964C788.144 393.964 779.604 393.964 778.036 393.964C776.972 393.964 775.684 394.02 774.732 394.048V389.988ZM772.38 403.708C773.472 403.764 774.788 403.876 775.908 403.876C777.672 403.876 790.216 403.876 791.98 403.876C792.904 403.876 794.108 403.792 795.06 403.708V407.992C794.052 407.88 792.792 407.796 791.98 407.796C790.216 407.796 777.672 407.796 775.908 407.796C774.788 407.796 773.444 407.88 772.38 407.992V403.708ZM824.712 390.072C824.432 390.436 823.9 391.108 823.648 391.5C822.332 393.684 819.672 397.24 816.9 399.2L813.988 396.876C816.256 395.504 818.44 393.04 819.168 391.668C817.46 391.668 806.316 391.668 804.552 391.668C803.404 391.668 802.452 391.724 801.136 391.864V387.944C802.228 388.112 803.404 388.252 804.552 388.252C806.316 388.252 818.188 388.252 819.644 388.252C820.428 388.252 821.968 388.14 822.5 388L824.712 390.072ZM813.316 393.824C813.316 400.768 813.148 406.48 805.532 410.596L802.256 407.936C803.18 407.628 804.188 407.152 805.224 406.368C808.752 403.904 809.424 400.964 809.424 396.372C809.424 395.476 809.396 394.748 809.256 393.824H813.316ZM848.456 387.272C848.4 388.056 848.372 388.952 848.372 390.1C848.372 391.528 848.372 394.244 848.372 395.616C848.372 401.664 847.196 404.24 845.096 406.536C843.248 408.58 840.364 409.924 838.32 410.596L835.38 407.488C838.18 406.844 840.42 405.78 842.128 403.96C844.032 401.86 844.424 399.76 844.424 395.392C844.424 393.992 844.424 391.304 844.424 390.1C844.424 388.952 844.34 388.056 844.228 387.272H848.456ZM835.492 387.524C835.436 388.168 835.38 388.784 835.38 389.652C835.38 390.884 835.38 397.548 835.38 399.116C835.38 399.816 835.436 400.908 835.492 401.552H831.404C831.46 401.048 831.544 399.956 831.544 399.088C831.544 397.492 831.544 390.884 831.544 389.652C831.544 389.148 831.516 388.168 831.432 387.524H835.492ZM860.748 387.72C862.68 389.036 866.32 391.948 867.972 393.656L865.116 396.568C863.66 395 860.132 391.948 858.088 390.548L860.748 387.72ZM857.22 406.368C861.616 405.752 865.228 404.324 867.944 402.728C872.732 399.872 876.372 395.616 878.164 391.836L880.32 395.756C878.22 399.564 874.496 403.428 869.988 406.144C867.132 407.852 863.52 409.392 859.6 410.064L857.22 406.368ZM735.812 426.068C736.512 427.104 737.492 428.868 738.024 429.904L735.784 430.884C735.196 429.736 734.328 428.056 733.572 426.992L735.812 426.068ZM739.116 424.808C739.844 425.872 740.88 427.636 741.384 428.616L739.144 429.568C738.556 428.42 737.66 426.768 736.904 425.732L739.116 424.808ZM738.304 432.228C737.996 432.788 737.604 433.544 737.38 434.244C736.624 436.736 735.028 440.488 732.508 443.596C729.848 446.844 726.46 449.42 721.196 451.492L717.892 448.552C723.632 446.816 726.74 444.38 729.176 441.608C731.08 439.424 732.704 436.064 733.152 433.992H723.716L725.004 430.8C726.264 430.8 732.116 430.8 733.012 430.8C733.88 430.8 734.804 430.688 735.448 430.464L738.304 432.228ZM729.176 427.804C728.532 428.784 727.804 430.072 727.468 430.66C725.592 434.048 722.232 437.996 718.228 440.74L715.064 438.416C719.992 435.42 722.428 431.808 723.828 429.4C724.248 428.728 724.836 427.412 725.088 426.46L729.176 427.804ZM763.265 426.068C763.965 427.104 764.945 428.868 765.477 429.904L763.237 430.884C762.649 429.736 761.781 428.056 761.025 426.992L763.265 426.068ZM766.569 424.808C767.297 425.872 768.333 427.636 768.837 428.616L766.597 429.568C766.009 428.42 765.113 426.768 764.357 425.732L766.569 424.808ZM765.757 432.228C765.449 432.788 765.057 433.544 764.833 434.244C764.077 436.736 762.481 440.488 759.961 443.596C757.301 446.844 753.913 449.42 748.649 451.492L745.345 448.552C751.085 446.816 754.193 444.38 756.629 441.608C758.533 439.424 760.157 436.064 760.605 433.992H751.169L752.457 430.8C753.717 430.8 759.569 430.8 760.465 430.8C761.333 430.8 762.257 430.688 762.901 430.464L765.757 432.228ZM756.629 427.804C755.985 428.784 755.257 430.072 754.921 430.66C753.045 434.048 749.685 437.996 745.681 440.74L742.517 438.416C747.445 435.42 749.881 431.808 751.281 429.4C751.701 428.728 752.289 427.412 752.541 426.46L756.629 427.804ZM783.509 448.384C783.649 447.852 783.733 447.096 783.733 446.34C783.733 444.856 783.733 432.284 783.733 430.016C783.733 428.756 783.537 427.664 783.537 427.608H787.681C787.681 427.664 787.485 428.784 787.485 430.044C787.485 432.284 787.485 442.952 787.485 444.66C789.781 443.68 792.525 441.468 794.429 438.752L796.557 441.86C794.233 444.884 790.229 447.908 787.065 449.504C786.477 449.812 786.141 450.12 785.861 450.316L783.509 448.384ZM770.545 447.992C773.037 446.256 774.549 443.68 775.305 441.272C776.117 438.892 776.145 433.572 776.145 430.212C776.145 429.064 776.033 428.336 775.865 427.636H779.981C779.981 427.748 779.785 429.008 779.785 430.156C779.785 433.488 779.701 439.396 778.973 442.224C778.105 445.36 776.369 448.132 773.961 450.26L770.545 447.992ZM800.001 436.036C801.037 436.12 803.053 436.232 804.509 436.232C807.813 436.232 817.053 436.232 819.545 436.232C820.861 436.232 822.093 436.092 822.849 436.036V440.46C822.177 440.432 820.749 440.292 819.573 440.292C817.025 440.292 807.813 440.292 804.509 440.292C802.941 440.292 801.065 440.376 800.001 440.46V436.036ZM846.269 428.476C846.269 429.372 846.997 430.1 847.893 430.1C848.789 430.1 849.517 429.372 849.517 428.476C849.517 427.58 848.789 426.852 847.893 426.852C846.997 426.852 846.269 427.58 846.269 428.476ZM844.533 428.476C844.533 426.628 846.045 425.116 847.893 425.116C849.741 425.116 851.253 426.628 851.253 428.476C851.253 430.324 849.741 431.836 847.893 431.836C846.045 431.836 844.533 430.324 844.533 428.476ZM847.949 430.688C847.669 431.22 847.473 432.032 847.333 432.62C846.689 435.364 845.457 439.732 843.105 442.84C840.585 446.2 836.861 448.972 831.849 450.568L828.797 447.208C834.369 445.92 837.533 443.484 839.773 440.656C841.649 438.332 842.713 435.14 843.077 432.732C841.369 432.732 832.129 432.732 830.029 432.732C828.741 432.732 827.425 432.816 826.697 432.872V428.896C827.537 429.008 829.105 429.148 830.029 429.148C832.129 429.148 841.425 429.148 842.993 429.148C843.553 429.148 844.449 429.12 845.177 428.924L847.949 430.688Z" fill="#333333"/>
<path d="M498.074 293.664C498.441 295.279 500.048 296.292 501.664 295.926L527.995 289.954C529.611 289.587 530.623 287.98 530.257 286.364C529.89 284.749 528.284 283.736 526.668 284.102L503.262 289.411L497.954 266.005C497.587 264.389 495.98 263.377 494.364 263.743C492.749 264.11 491.736 265.716 492.102 267.332L498.074 293.664ZM573.462 172.4L498.462 291.4L503.538 294.6L578.538 175.6L573.462 172.4Z" fill="black"/>
<path d="M532.966 162.549C532.717 160.911 531.187 159.785 529.549 160.034L502.856 164.093C501.218 164.343 500.092 165.872 500.341 167.51C500.59 169.148 502.12 170.274 503.758 170.025L527.485 166.417L531.093 190.144C531.343 191.782 532.872 192.908 534.51 192.659C536.148 192.41 537.274 190.88 537.025 189.242L532.966 162.549ZM440.416 289.778L532.416 164.778L527.584 161.222L435.584 286.222L440.416 289.778Z" fill="black"/>
<path d="M708.564 194.053C706.936 193.742 705.365 194.809 705.053 196.436L699.981 222.956C699.67 224.583 700.737 226.155 702.364 226.466C703.992 226.777 705.563 225.71 705.875 224.083L710.383 200.51L733.956 205.019C735.583 205.33 737.155 204.263 737.466 202.636C737.777 201.008 736.71 199.437 735.083 199.125L708.564 194.053ZM784.482 304.315L710.482 195.315L705.518 198.685L779.518 307.685L784.482 304.315Z" fill="black"/>
<path d="M688.198 443.041C689.326 441.827 689.255 439.929 688.041 438.802L668.256 420.429C667.042 419.302 665.144 419.372 664.016 420.586C662.889 421.801 662.959 423.699 664.173 424.826L681.76 441.157L665.429 458.744C664.302 459.958 664.372 461.856 665.586 462.984C666.801 464.111 668.699 464.041 669.826 462.827L688.198 443.041ZM551.111 448.998L686.111 443.998L685.889 438.002L550.889 443.002L551.111 448.998Z" fill="black"/>
</svg>
